SplineFontDB: 3.0
FontName: Shahab-Regular
FullName: Shahab Regular
FamilyName: Shahab
Weight: Regular
Copyright: Copyright (c) 2016 Copyright Holder Persian Font Store (info@font-store.ir), with Reserved Font Name "Shahab"
UComments: "2015-5-13: Created with FontForge (http://fontforge.org)"
Version: Version:0.0.1;RFB:1.2.5;Building:2016-11-25 00:00:23.623190
FONDName: RITA
ItalicAngle: 0
UnderlinePosition: 500
UnderlineWidth: 59
Ascent: 800
Descent: 500
InvalidEm: 0
sfntRevision: 0x00010000
LayerCount: 2
Layer: 0 0 "Back" 1
Layer: 1 0 "Fore" 0
PreferredKerning: 4
XUID: [1021 828 -1901974348 32649]
StyleMap: 0x0040
FSType: 0
OS2Version: 0
OS2_WeightWidthSlopeOnly: 0
OS2_UseTypoMetrics: 0
CreationTime: 1431477301
ModificationTime: 1480019423
PfmFamily: 33
TTFWeight: 400
TTFWidth: 5
LineGap: 0
VLineGap: 0
Panose: 2 0 5 3 0 0 0 0 0 0
OS2TypoAscent: 800
OS2TypoAOffset: 0
OS2TypoDescent: -500
OS2TypoDOffset: 0
OS2TypoLinegap: 0
OS2WinAscent: 1100
OS2WinAOffset: 0
OS2WinDescent: 700
OS2WinDOffset: 0
HheadAscent: 1100
HheadAOffset: 0
HheadDescent: -700
HheadDOffset: 0
OS2SubXSize: 780
OS2SubYSize: 839
OS2SubXOff: -107
OS2SubYOff: 168
OS2SupXSize: 780
OS2SupYSize: 839
OS2SupXOff: 369
OS2SupYOff: 575
OS2StrikeYSize: 59
OS2StrikeYPos: 310
OS2Vendor: 'RITA'
OS2CodePages: 00000040.00000000
OS2UnicodeRanges: 80002003.80002000.00000008.00000000
MacStyle: 0
Lookup: 4 1 1 "'ccmp' Glyph Composition/Decomposition in Arabic lookup 5" { "'ccmp' Glyph Composition/Decomposition in Arabic lookup 5-1"  } ['ccmp' ('DFLT' <'dflt' > 'arab' <'dflt' > ) ]
Lookup: 1 9 0 "'isol' Isolated Forms in Latin lookup 1" { "'isol' Isolated Forms in Latin lookup 1-1"  } ['isol' ('DFLT' <'dflt' > 'arab' <'dflt' > ) ]
Lookup: 1 9 0 "'fina' Terminal Forms in Arabic lookup 3" { "'fina' Terminal Forms in Arabic lookup 3-1"  } ['fina' ('DFLT' <'dflt' > 'arab' <'dflt' > ) ]

StartChar: _.alef.isol
Encoding: 65536 -1 0
GlifName: _.alef.isol
Width: 291
VWidth: 1304
GlyphClass: 2
Flags: HMW
LayerCount: 2
Fore
SplineSet
100 -0 m 1
 100 757 l 1
 191 800 l 1
 191 42 l 1
 100 -0 l 1
EndSplineSet
Colour: ffda6b
EndChar

StartChar: _.alef.fina
Encoding: 65537 -1 1
GlifName: _.alef.fina
Width: 319
VWidth: 1304
GlyphClass: 2
Flags: HMW
LayerCount: 2
Fore
SplineSet
100 203 m 1
 100 757 l 1
 189 800 l 1
 189 210 l 1
 190 126 223 100 319 100 c 1
 319 -0 l 1
 149 0 105 66 100 203 c 1
EndSplineSet
Colour: ffda6b
EndChar

StartChar: _.alef_kotah.isol
Encoding: 65538 -1 2
GlifName: _.alef_kotah.isol
Width: 291
VWidth: 1304
GlyphClass: 2
Flags: HMW
LayerCount: 2
Fore
SplineSet
100 -0 m 1
 100 657 l 1
 191 700 l 1
 191 42 l 1
 100 -0 l 1
EndSplineSet
Colour: ffda6b
EndChar

StartChar: _.alef_kotah.fina
Encoding: 65539 -1 3
GlifName: _.alef_kotah.fina
Width: 319
VWidth: 1304
GlyphClass: 2
Flags: HMW
LayerCount: 2
Fore
SplineSet
100 203 m 1
 100 657 l 1
 189 700 l 1
 189 210 l 1
 190 126 223 100 319 100 c 1
 319 -0 l 1
 149 0 105 66 100 203 c 1
EndSplineSet
Colour: ffda6b
EndChar

StartChar: _.beh.isol
Encoding: 65540 -1 4
GlifName: _.beh.isol
Width: 1001
VWidth: 1304
GlyphClass: 2
UnlinkRmOvrlpSave: 1
Flags: HMW
LayerCount: 2
Fore
SplineSet
100 208 m 0
 100 257 115 315 150 384 c 1
 209 358 l 1
 187 315 177 278 177 247 c 0
 177 129 320 90 477 90 c 0
 602 90 736 115 815 146 c 1
 817 163 797 281 764 383 c 1
 857 426 l 1
 884 334 901 251 901 195 c 0
 901 139 893 77 843 55 c 0
 752 15 606 -15 467 -15 c 0
 276 -15 100 42 100 208 c 0
EndSplineSet
Colour: ffda6b
EndChar

StartChar: _.beh.fina
Encoding: 65541 -1 5
GlifName: _.beh.fina
Width: 1035
VWidth: 1304
GlyphClass: 2
UnlinkRmOvrlpSave: 1
Flags: HMW
LayerCount: 2
Fore
SplineSet
100 208 m 0
 100 257 115 315 150 384 c 1
 209 358 l 1
 186 315 176 278 176 247 c 0
 176 129 319 89 476 89 c 0
 603 89 739 115 817 147 c 1
 798 284 l 1
 884 305 l 1
 900 193 l 2
 911 122 930 100 1035 100 c 1
 1035 -0 l 1
 946 0 891 20 857 63 c 1
 853 61 848 57 843 55 c 0
 752 15 606 -15 467 -15 c 0
 276 -15 100 42 100 208 c 0
EndSplineSet
Colour: ffda6b
EndChar

StartChar: _.beh.medi
Encoding: 65542 -1 6
GlifName: _.beh.medi
Width: 389
VWidth: 1304
GlyphClass: 2
UnlinkRmOvrlpSave: 1
Flags: HMW
LayerCount: 2
Fore
SplineSet
-50 50 m 0
 -49 76 -25 100 0 100 c 0
 73 100 130 105 179 125 c 1
 173 145 169 166 165 191 c 2
 152 284 l 1
 238 305 l 1
 252 209 l 2
 264 125 278 100 389 100 c 1
 389 -0 l 1
 307 0 254 16 220 53 c 1
 170 11 82 0 0 -0 c 0
 -25 0 -50 24 -50 50 c 0
EndSplineSet
Colour: ffda6b
EndChar

StartChar: _.beh.init
Encoding: 65543 -1 7
GlifName: _.beh.init
Width: 385
VWidth: 1197
GlyphClass: 1
UnlinkRmOvrlpSave: 1
Flags: HMW
LayerCount: 2
Fore
SplineSet
285 175 m 0
 285 33 172 0 0 -0 c 0
 -26 0 -50 24 -50 50 c 0
 -50 76 -26 100 0 100 c 0
 70 100 134 101 200 127 c 0
 200 128 200 130 200 132 c 0
 200 159 181 268 149 365 c 1
 242 407 l 1
 269 315 285 232 285 175 c 0
EndSplineSet
Colour: ffda6b
EndChar

StartChar: _.heh.isol
Encoding: 65544 -1 8
GlifName: _.heh.isol
Width: 829
VWidth: 1304
GlyphClass: 1
UnlinkRmOvrlpSave: 1
Flags: HMW
LayerCount: 2
Fore
SplineSet
417 -319 m 0
 265 -319 104 -249 104 -61 c 0
 104 78 225 238 415 305 c 1
 343 335 279 362 234 362 c 0
 208 362 188 353 176 331 c 2
 153 283 l 1
 100 300 l 1
 120 356 l 2
 150 440 193 463 242 463 c 0
 271 463 303 454 333 445 c 0
 420 418 522 363 622 336 c 0
 655 327 688 321 720 321 c 0
 723 321 726 321 729 321 c 1
 688 230 l 1
 654 230 622 238 586 238 c 0
 383 238 204 81 191 -42 c 0
 190 -49 190 -56 190 -62 c 0
 190 -181 303 -220 422 -220 c 0
 494 -220 568 -205 620 -187 c 1
 648 -261 l 1
 589 -297 504 -319 417 -319 c 0
EndSplineSet
Colour: ffda6b
EndChar

StartChar: _.heh.fina
Encoding: 65545 -1 9
GlifName: _.heh.fina
Width: 828
VWidth: 1304
GlyphClass: 1
UnlinkRmOvrlpSave: 1
Flags: HMW
LayerCount: 2
Fore
SplineSet
417 -319 m 0
 265 -319 104 -249 104 -61 c 0
 104 78 225 238 415 305 c 1
 343 335 279 362 234 362 c 0
 208 362 188 353 176 331 c 2
 153 283 l 1
 100 300 l 1
 120 356 l 2
 150 440 193 463 242 463 c 0
 271 463 303 454 333 445 c 0
 420 418 522 363 622 336 c 0
 655 327 688 321 720 321 c 0
 723 321 726 321 729 321 c 1
 688 230 l 1
 670 230 652 231 632 235 c 1
 636 209 l 2
 648 125 662 100 773 100 c 2
 828 100 l 1
 828 -0 l 1
 773 -0 l 2
 623 0 569 56 549 191 c 1
 543 236 l 1
 358 216 203 72 191 -42 c 0
 190 -49 190 -56 190 -62 c 0
 190 -181 303 -220 422 -220 c 0
 494 -220 568 -205 620 -187 c 1
 648 -261 l 1
 589 -297 504 -319 417 -319 c 0
EndSplineSet
Colour: ffda6b
EndChar

StartChar: _.heh.medi
Encoding: 65546 -1 10
GlifName: _.heh.medi
Width: 819
VWidth: 1304
GlyphClass: 1
UnlinkRmOvrlpSave: 1
Flags: HMW
LayerCount: 2
Fore
SplineSet
-50 50 m 0
 -49 76 -26 100 0 100 c 2
 111 100 l 2
 301 100 397 187 505 246 c 1
 394 286 290 342 225 342 c 0
 199 342 180 333 168 311 c 2
 145 263 l 1
 92 280 l 1
 111 336 l 2
 141 420 185 444 234 444 c 0
 263 444 294 435 324 426 c 0
 438 390 577 305 703 301 c 1
 721 301 l 1
 680 210 l 1
 665 210 l 2
 651 210 640 207 628 205 c 1
 639 124 655 100 765 100 c 2
 819 100 l 1
 819 -0 l 1
 765 -0 l 2
 625 0 568 48 545 166 c 1
 448 104 330 0 110 -0 c 2
 0 -0 l 2
 -26 0 -50 24 -50 50 c 0
EndSplineSet
Colour: ffda6b
EndChar

StartChar: _.heh.init
Encoding: 65547 -1 11
GlifName: _.heh.init
Width: 821
VWidth: 1304
GlyphClass: 1
UnlinkRmOvrlpSave: 1
Flags: HMW
LayerCount: 2
Fore
SplineSet
-50 50 m 0
 -49 76 -26 100 0 100 c 2
 111 100 l 2
 301 100 397 187 505 246 c 1
 394 286 290 342 225 342 c 0
 199 342 180 333 168 311 c 2
 145 263 l 1
 92 280 l 1
 111 336 l 2
 141 420 185 444 234 444 c 0
 263 444 294 435 324 426 c 0
 438 390 577 305 703 301 c 1
 721 301 l 1
 680 210 l 1
 665 210 l 2
 664 210 l 0
 527 210 422 0 110 -0 c 2
 0 -0 l 2
 -26 0 -50 24 -50 50 c 0
EndSplineSet
Colour: ffda6b
EndChar

StartChar: _.sin.isol
Encoding: 65548 -1 12
GlifName: _.sin.isol
Width: 1387
VWidth: 1304
GlyphClass: 1
UnlinkRmOvrlpSave: 1
Flags: HMW
LayerCount: 2
Fore
SplineSet
100 -54 m 0
 100 1 113 68 144 149 c 1
 195 133 l 1
 176 77 168 30 168 -9 c 0
 168 -129 249 -170 355 -170 c 0
 456 -169 552 -124 615 -70 c 1
 615 -47 605 77 562 215 c 1
 653 257 l 1
 667 207 677 162 684 124 c 1
 714 104 755 100 794 100 c 0
 837 100 897 115 920 130 c 1
 914 153 914 179 914 207 c 2
 914 262 l 1
 1002 268 l 1
 1002 210 l 2
 1002 205 1002 201 1002 197 c 0
 1002 133 1021 100 1095 100 c 0
 1155 100 1188 117 1203 128 c 1
 1203 130 l 1
 1204 151 1194 211 1161 325 c 1
 1254 368 l 1
 1277 292 1287 224 1287 171 c 0
 1287 163 1287 156 1287 149 c 0
 1283 46 1174 0 1092 -0 c 0
 1090 0 1089 0 1087 -0 c 0
 1028 0 985 19 956 54 c 1
 913 18 847 0 793 -0 c 0
 791 0 790 0 788 -0 c 0
 754 0 724 3 698 10 c 1
 698 -12 697 -32 695 -47 c 0
 674 -190 506 -270 355 -270 c 0
 213 -270 100 -212 100 -54 c 0
EndSplineSet
Colour: ffda6b
EndChar

StartChar: _.sin.fina
Encoding: 65549 -1 13
GlifName: _.sin.fina
Width: 1414
VWidth: 1304
GlyphClass: 1
UnlinkRmOvrlpSave: 1
Flags: HMW
LayerCount: 2
Fore
SplineSet
100 -54 m 0
 100 1 113 68 144 149 c 1
 195 133 l 1
 176 77 168 30 168 -9 c 0
 168 -129 249 -170 355 -170 c 0
 456 -169 552 -124 615 -70 c 1
 615 -47 605 77 562 215 c 1
 653 257 l 1
 667 207 677 162 684 124 c 1
 714 104 755 100 794 100 c 0
 837 100 897 115 920 130 c 1
 914 153 914 179 914 207 c 2
 914 262 l 1
 1002 268 l 1
 1002 210 l 2
 1002 205 1002 201 1002 197 c 0
 1002 133 1021 100 1095 100 c 0
 1154 100 1187 117 1203 127 c 1
 1197 147 1192 168 1188 191 c 2
 1169 329 l 1
 1255 349 l 1
 1276 209 l 1
 1287 125 1302 100 1414 100 c 1
 1414 -0 l 1
 1332 0 1276 16 1242 54 c 1
 1203 17 1142 0 1092 -0 c 0
 1090 0 1089 0 1087 -0 c 0
 1028 0 985 19 956 54 c 1
 913 18 847 0 793 -0 c 0
 791 0 790 0 788 -0 c 0
 754 0 724 3 698 10 c 1
 698 -12 697 -32 695 -47 c 0
 674 -190 506 -270 355 -270 c 0
 213 -270 100 -212 100 -54 c 0
EndSplineSet
Colour: ffda6b
EndChar

StartChar: _.sin.medi
Encoding: 65550 -1 14
GlifName: _.sin.medi
Width: 1001
VWidth: 1304
GlyphClass: 1
UnlinkRmOvrlpSave: 1
Flags: HMW
LayerCount: 2
Fore
SplineSet
-50 50 m 0
 -49 75 -25 99 -2 100 c 1
 30 100 l 2
 136 100 166 116 188 186 c 2
 216 279 l 1
 302 253 l 1
 264 131 l 1
 295 104 339 100 382 100 c 0
 425 100 485 115 508 130 c 1
 502 153 502 179 502 207 c 2
 502 262 l 1
 590 268 l 1
 590 210 l 2
 590 205 590 201 590 197 c 0
 590 133 608 100 682 100 c 0
 741 100 775 117 791 127 c 1
 785 147 780 168 776 191 c 2
 756 329 l 1
 843 349 l 1
 863 209 l 1
 874 125 889 100 1001 100 c 1
 1001 -0 l 1
 919 0 864 16 830 54 c 1
 791 17 730 0 680 -0 c 0
 678 0 677 0 675 -0 c 0
 616 0 572 19 543 54 c 1
 500 18 435 0 381 -0 c 0
 379 0 378 0 376 -0 c 0
 307 0 263 10 209 49 c 1
 165 10 104 0 24 -0 c 2
 0 -0 l 1
 -23 1 -50 24 -50 50 c 0
EndSplineSet
Colour: ffda6b
EndChar

StartChar: _.sin.init
Encoding: 65551 -1 15
GlifName: _.sin.init
Width: 975
VWidth: 1304
GlyphClass: 1
UnlinkRmOvrlpSave: 1
Flags: HMW
LayerCount: 2
Fore
SplineSet
-50 50 m 0
 -49 75 -25 99 -2 100 c 1
 30 100 l 2
 136 100 166 116 188 186 c 2
 216 279 l 1
 302 253 l 1
 264 131 l 1
 295 104 339 100 382 100 c 0
 425 100 485 115 508 130 c 1
 502 153 502 179 502 207 c 2
 502 262 l 1
 590 268 l 1
 590 210 l 2
 590 205 590 201 590 197 c 0
 590 133 608 100 682 100 c 0
 742 100 776 117 791 128 c 1
 791 130 l 1
 792 151 782 211 749 325 c 1
 841 368 l 1
 864 292 875 224 875 171 c 0
 875 163 875 156 875 149 c 0
 871 46 762 0 680 -0 c 0
 678 0 677 0 675 -0 c 0
 616 0 572 19 543 54 c 1
 500 18 435 0 381 -0 c 0
 379 0 378 0 376 -0 c 0
 307 0 263 10 209 49 c 1
 165 10 104 0 24 -0 c 2
 0 -0 l 1
 -23 1 -50 24 -50 50 c 0
EndSplineSet
Colour: ffda6b
EndChar

StartChar: _.sad.isol
Encoding: 65552 -1 16
GlifName: _.sad.isol
Width: 1386
VWidth: 1304
GlyphClass: 1
UnlinkRmOvrlpSave: 1
Flags: HMW
LayerCount: 2
Fore
SplineSet
1087 441 m 0
 1208 441 1286 356 1286 232 c 0
 1286 206 1282 178 1275 149 c 1
 1253 23 1064 0 959 -0 c 2
 802 -0 l 2
 760 0 727 5 699 15 c 1
 699 -1 697 -15 695 -27 c 0
 674 -170 506 -249 356 -250 c 0
 214 -250 100 -194 100 -36 c 0
 100 19 114 86 145 168 c 1
 196 152 l 1
 177 96 169 50 169 11 c 0
 169 -108 248 -149 352 -149 c 0
 353 -149 355 -149 356 -149 c 0
 457 -149 552 -104 615 -51 c 1
 614 -28 605 97 561 235 c 1
 653 278 l 1
 663 240 672 206 678 175 c 0
 684 156 692 140 703 129 c 1
 824 281 945 441 1087 441 c 0
794 100 m 1
 965 100 l 2
 1028 100 1123 108 1185 136 c 1
 1191 158 1194 181 1194 202 c 0
 1194 279 1155 340 1083 340 c 0
 991 340 855 180 794 100 c 1
EndSplineSet
Colour: ffda6b
EndChar

StartChar: _.sad.fina
Encoding: 65553 -1 17
GlifName: _.sad.fina
Width: 1414
VWidth: 1304
GlyphClass: 1
UnlinkRmOvrlpSave: 1
Flags: HMW
LayerCount: 2
Fore
SplineSet
699 16 m 1
 699 -161 521 -249 356 -250 c 0
 214 -250 100 -194 100 -36 c 0
 100 19 114 86 145 168 c 1
 196 152 l 1
 177 96 169 50 169 11 c 0
 169 -108 248 -149 352 -149 c 0
 353 -149 355 -149 356 -149 c 0
 457 -149 552 -104 615 -51 c 1
 614 -28 605 97 561 235 c 1
 653 278 l 1
 663 241 671 208 677 178 c 0
 683 157 692 141 704 129 c 1
 825 281 944 441 1087 441 c 0
 1208 441 1286 356 1286 232 c 0
 1286 195 1279 142 1263 113 c 1
 1300 102 1339 100 1372 100 c 2
 1414 100 l 1
 1414 -0 l 1
 1372 -0 l 2
 1291 0 1238 16 1204 53 c 1
 1133 10 1028 0 959 -0 c 2
 802 -0 l 2
 760 0 726 5 699 16 c 1
795 100 m 1
 965 100 l 2
 1028 100 1123 108 1185 136 c 1
 1191 158 1194 181 1194 202 c 0
 1194 279 1155 340 1083 340 c 0
 992 340 857 181 795 100 c 1
EndSplineSet
Colour: ffda6b
EndChar

StartChar: _.sad.medi
Encoding: 65554 -1 18
GlifName: _.sad.medi
Width: 984
VWidth: 1304
GlyphClass: 1
UnlinkRmOvrlpSave: 1
Flags: HMW
LayerCount: 2
Fore
SplineSet
855 232 m 0
 855 195 849 142 833 113 c 1
 870 102 909 100 942 100 c 2
 984 100 l 1
 984 -0 l 1
 942 -0 l 2
 861 0 808 16 774 53 c 1
 703 10 598 0 529 -0 c 2
 372 -0 l 1
 298 1 249 18 216 52 c 1
 166 10 81 0 0 -0 c 0
 -26 0 -50 24 -50 50 c 0
 -50 76 -26 100 0 100 c 0
 69 100 126 106 174 124 c 1
 168 144 163 166 159 191 c 2
 146 284 l 1
 233 305 l 1
 247 209 l 1
 251 173 260 149 276 133 c 1
 396 283 515 441 657 441 c 0
 778 441 855 356 855 232 c 0
365 100 m 1
 535 100 l 2
 598 100 693 108 755 136 c 1
 761 158 764 181 764 202 c 0
 764 279 724 340 652 340 c 0
 561 340 427 179 365 100 c 1
EndSplineSet
Colour: ffda6b
EndChar

StartChar: _.sad.init
Encoding: 65555 -1 19
GlifName: _.sad.init
Width: 955
VWidth: 1304
GlyphClass: 1
UnlinkRmOvrlpSave: 1
Flags: HMW
LayerCount: 2
Fore
SplineSet
657 441 m 0
 778 441 855 356 855 232 c 0
 855 206 852 178 845 149 c 1
 823 23 634 0 529 -0 c 2
 372 -0 l 1
 298 1 249 18 216 52 c 1
 166 10 81 0 0 -0 c 0
 -26 0 -50 24 -50 50 c 0
 -50 76 -26 100 0 100 c 0
 69 100 126 106 174 124 c 1
 168 144 163 166 159 191 c 2
 146 284 l 1
 233 305 l 1
 247 209 l 1
 251 173 260 149 276 133 c 1
 396 283 515 441 657 441 c 0
365 100 m 1
 535 100 l 2
 598 100 693 108 755 136 c 1
 761 158 764 181 764 202 c 0
 764 279 724 340 652 340 c 0
 561 340 427 179 365 100 c 1
EndSplineSet
Colour: ffda6b
EndChar

StartChar: _.ta.isol
Encoding: 65556 -1 20
GlifName: _.ta.isol
Width: 1032
VWidth: 1304
GlyphClass: 1
UnlinkRmOvrlpSave: 1
Flags: HMW
LayerCount: 2
Fore
SplineSet
734 441 m 0
 855 441 932 355 932 232 c 0
 932 206 928 178 921 149 c 1
 899 23 710 0 605 -0 c 2
 280 -0 l 1
 182 5 128 35 100 103 c 1
 100 126 108 135 123 135 c 0
 131 135 142 132 155 128 c 1
 202 105 256 100 302 100 c 2
 339 100 l 1
 339 757 l 1
 430 800 l 1
 430 229 l 1
 525 343 622 441 734 441 c 0
440 100 m 1
 611 100 l 2
 674 100 769 108 831 136 c 1
 837 158 840 181 840 202 c 0
 840 279 800 340 728 340 c 0
 637 340 502 179 440 100 c 1
EndSplineSet
Colour: ffda6b
EndChar

StartChar: _.ta.fina
Encoding: 65557 -1 21
GlifName: _.ta.fina
Width: 1060
VWidth: 1304
GlyphClass: 1
UnlinkRmOvrlpSave: 1
Flags: HMW
LayerCount: 2
Fore
SplineSet
932 232 m 0
 932 195 925 142 909 113 c 1
 946 102 985 100 1018 100 c 2
 1060 100 l 1
 1060 -0 l 1
 1018 -0 l 2
 937 0 884 16 850 53 c 1
 779 10 674 0 605 -0 c 2
 280 -0 l 1
 182 5 128 35 100 103 c 1
 100 126 108 135 123 135 c 0
 131 135 142 132 155 128 c 1
 202 105 256 100 302 100 c 2
 339 100 l 1
 339 757 l 1
 430 800 l 1
 430 229 l 1
 525 343 622 441 734 441 c 0
 855 441 932 355 932 232 c 0
440 100 m 1
 611 100 l 2
 674 100 769 108 831 136 c 1
 837 158 840 181 840 202 c 0
 840 279 800 340 728 340 c 0
 637 340 502 179 440 100 c 1
EndSplineSet
Colour: ffda6b
EndChar

StartChar: _.ta.medi
Encoding: 65558 -1 22
GlifName: _.ta.medi
Width: 861
VWidth: 1304
GlyphClass: 1
UnlinkRmOvrlpSave: 1
Flags: HMW
LayerCount: 2
Fore
SplineSet
732 232 m 0
 732 195 726 142 710 113 c 1
 747 102 786 100 819 100 c 2
 861 100 l 1
 861 -0 l 1
 819 -0 l 2
 738 0 684 16 650 53 c 1
 579 10 474 0 405 -0 c 2
 0 -0 l 2
 -25 0 -50 24 -50 50 c 0
 -49 76 -25 100 0 100 c 2
 140 100 l 1
 140 757 l 1
 231 800 l 1
 231 229 l 1
 326 343 422 441 534 441 c 0
 655 441 732 355 732 232 c 0
241 100 m 1
 412 100 l 2
 475 100 570 108 632 136 c 1
 638 158 641 181 641 202 c 0
 641 279 601 340 529 340 c 0
 438 340 303 179 241 100 c 1
EndSplineSet
Colour: ffda6b
EndChar

StartChar: _.ta.init
Encoding: 65559 -1 23
GlifName: _.ta.init
Width: 832
VWidth: 1304
GlyphClass: 1
UnlinkRmOvrlpSave: 1
Flags: HMW
LayerCount: 2
Fore
SplineSet
534 441 m 0
 655 441 732 355 732 232 c 0
 732 206 729 178 722 149 c 1
 700 23 510 0 405 -0 c 2
 0 -0 l 2
 -25 0 -50 24 -50 50 c 0
 -49 76 -25 100 0 100 c 2
 140 100 l 1
 140 757 l 1
 231 800 l 1
 231 229 l 1
 326 343 422 441 534 441 c 0
241 100 m 1
 412 100 l 2
 475 100 570 108 632 136 c 1
 638 158 641 181 641 202 c 0
 641 279 601 340 529 340 c 0
 438 340 303 179 241 100 c 1
EndSplineSet
Colour: ffda6b
EndChar

StartChar: _.ein.isol
Encoding: 65560 -1 24
GlifName: _.ein.isol
Width: 743
VWidth: 1304
GlyphClass: 1
UnlinkRmOvrlpSave: 1
Flags: HMW
LayerCount: 2
Fore
SplineSet
412 -319 m 0
 260 -319 100 -249 100 -61 c 0
 100 37 160 146 263 225 c 1
 197 267 165 334 165 403 c 0
 165 536 264 604 373 604 c 0
 428 604 487 588 540 556 c 1
 489 470 l 1
 450 487 414 495 380 495 c 0
 315 495 263 466 242 416 c 1
 259 353 310 302 364 282 c 1
 423 307 508 335 531 349 c 1
 567 260 l 1
 486 218 458 221 382 182 c 0
 274 127 196 37 187 -42 c 0
 186 -49 186 -56 186 -62 c 0
 186 -181 299 -220 418 -220 c 0
 490 -220 563 -205 615 -187 c 1
 643 -261 l 1
 584 -297 499 -319 412 -319 c 0
EndSplineSet
Colour: ffda6b
EndChar

StartChar: _.ein.fina
Encoding: 65561 -1 25
GlifName: _.ein.fina
Width: 743
VWidth: 1304
GlyphClass: 1
UnlinkRmOvrlpSave: 1
Flags: HMW
LayerCount: 2
Fore
SplineSet
100 -83 m 0
 100 36 196 151 330 225 c 1
 321 235 312 246 303 256 c 0
 260 305 195 338 131 354 c 1
 143 455 l 1
 194 486 301 506 403 506 c 0
 462 506 519 500 563 485 c 0
 600 473 613 448 613 417 c 0
 613 397 608 375 599 353 c 0
 582 305 541 250 481 203 c 1
 566 130 629 100 743 100 c 1
 743 -0 l 1
 588 0 501 48 399 151 c 1
 314 103 184 26 184 -70 c 0
 184 -170 305 -219 419 -219 c 0
 490 -219 563 -205 615 -187 c 1
 643 -261 l 1
 584 -297 495 -320 405 -320 c 0
 253 -320 100 -255 100 -83 c 0
275 390 m 1
 322 357 370 306 412 267 c 1
 487 309 532 356 541 386 c 1
 493 396 446 400 401 400 c 0
 356 400 314 396 275 390 c 1
EndSplineSet
Colour: ffda6b
EndChar

StartChar: _.ein.medi
Encoding: 65562 -1 26
GlifName: _.ein.medi
Width: 596
VWidth: 1304
GlyphClass: 1
UnlinkRmOvrlpSave: 1
Flags: HMW
LayerCount: 2
Fore
SplineSet
-50 50 m 0
 -50 75 -26 100 -1 100 c 0
 79 100 153 113 215 134 c 1
 158 192 121 251 46 269 c 1
 57 370 l 1
 108 401 215 421 317 421 c 0
 376 421 434 415 478 400 c 0
 514 388 527 362 527 331 c 0
 527 311 522 290 514 268 c 0
 497 222 457 172 402 128 c 1
 454 111 516 100 596 100 c 1
 596 -0 l 1
 454 0 365 28 301 66 c 1
 219 27 117 0 0 -0 c 1
 -25 1 -50 24 -50 50 c 0
167 301 m 1
 206 262 246 213 309 172 c 1
 393 216 446 269 455 301 c 1
 407 311 359 315 314 315 c 0
 261 315 211 309 167 301 c 1
EndSplineSet
Colour: ffda6b
EndChar

StartChar: _.ein.init
Encoding: 65563 -1 27
GlifName: _.ein.init
Width: 600
VWidth: 1304
GlyphClass: 1
UnlinkRmOvrlpSave: 1
Flags: HMW
LayerCount: 2
Fore
SplineSet
52 244 m 0
 52 377 151 444 260 444 c 0
 315 444 373 428 426 396 c 1
 376 310 l 1
 337 327 300 335 266 335 c 0
 201 335 150 306 129 256 c 1
 150 178 223 116 289 114 c 1
 289 113 l 1
 367 127 422 151 466 176 c 1
 500 86 l 1
 400 20 278 0 136 -0 c 2
 -1 -0 l 1
 -26 1 -50 24 -50 50 c 0
 -49 75 -26 100 -1 100 c 2
 109 100 l 1
 71 140 52 192 52 244 c 0
EndSplineSet
Colour: ffda6b
EndChar

StartChar: _.feh.isol
Encoding: 65564 -1 28
GlifName: _.feh.isol
Width: 1008
VWidth: 1304
GlyphClass: 1
UnlinkRmOvrlpSave: 1
Flags: HMW
LayerCount: 2
Fore
SplineSet
694 593 m 0
 697 593 701 593 704 593 c 1
 704 592 l 1
 842 581 908 390 908 237 c 0
 908 197 904 160 895 129 c 1
 889 97 873 69 843 55 c 0
 752 15 606 -15 467 -15 c 0
 277 -15 100 42 100 208 c 0
 100 257 115 315 150 384 c 1
 209 358 l 1
 186 315 177 278 177 247 c 0
 177 129 319 90 476 90 c 0
 601 90 735 115 814 146 c 1
 819 171 821 196 821 221 c 1
 784 208 739 200 697 200 c 0
 609 200 529 236 529 343 c 0
 530 464 591 586 694 593 c 0
614 350 m 0
 614 312 655 300 702 300 c 0
 743 300 788 309 812 317 c 1
 792 412 745 486 699 492 c 1
 660 486 614 414 614 350 c 0
EndSplineSet
Colour: ffda6b
EndChar

StartChar: _.feh.fina
Encoding: 65565 -1 29
GlifName: _.feh.fina
Width: 1089
VWidth: 1304
GlyphClass: 1
UnlinkRmOvrlpSave: 1
Flags: HMW
LayerCount: 2
Fore
SplineSet
989 242 m 0
 989 191 973 159 933 119 c 1
 981 107 1034 100 1089 100 c 1
 1089 -0 l 1
 997 0 906 18 831 50 c 1
 739 12 599 -15 466 -15 c 0
 276 -15 100 41 100 207 c 0
 100 256 115 315 150 384 c 1
 209 358 l 1
 186 315 177 278 177 247 c 0
 177 129 320 89 477 89 c 0
 560 89 647 100 719 117 c 1
 682 150 658 189 657 228 c 0
 657 232 657 235 657 239 c 0
 663 384 771 469 830 470 c 0
 885 470 989 390 989 242 c 0
725 237 m 1
 745 207 783 179 833 154 c 1
 846 160 l 1
 884 183 911 213 927 246 c 1
 912 320 850 369 828 369 c 0
 806 369 746 319 725 237 c 1
EndSplineSet
Colour: ffda6b
EndChar

StartChar: _.feh.medi
Encoding: 65566 -1 30
GlifName: _.feh.medi
Width: 505
VWidth: 1304
GlyphClass: 1
UnlinkRmOvrlpSave: 1
Flags: HMW
LayerCount: 2
Fore
SplineSet
405 243 m 0
 405 191 389 159 349 119 c 1
 397 107 450 100 505 100 c 1
 505 -0 l 1
 414 0 323 18 248 49 c 1
 184 19 101 0 0 -0 c 0
 -25 0 -50 24 -50 50 c 0
 -49 76 -25 100 0 100 c 0
 52 100 99 104 140 113 c 1
 99 147 74 186 72 228 c 0
 73 232 72 235 72 237 c 2
 72 239 l 1
 78 384 186 469 244 470 c 0
 301 470 405 391 405 243 c 0
141 237 m 1
 161 207 200 179 250 154 c 1
 293 179 325 209 343 246 c 1
 328 320 266 369 244 369 c 0
 222 369 162 319 141 237 c 1
EndSplineSet
Colour: ffda6b
EndChar

StartChar: _.feh.init
Encoding: 65567 -1 31
GlifName: _.feh.init
Width: 551
VWidth: 1304
GlyphClass: 1
UnlinkRmOvrlpSave: 1
Flags: HMW
LayerCount: 2
Fore
SplineSet
237 593 m 0
 240 593 244 593 247 593 c 1
 247 592 l 1
 385 581 451 390 451 237 c 0
 451 197 447 160 438 129 c 0
 406 7 260 0 158 -0 c 2
 -1 -0 l 1
 -26 1 -50 24 -50 50 c 0
 -50 75 -26 100 -1 100 c 2
 158 100 l 2
 226 100 289 100 353 125 c 1
 360 157 364 189 364 221 c 1
 327 208 282 200 240 200 c 0
 152 200 72 236 72 343 c 0
 73 464 134 586 237 593 c 0
157 350 m 0
 157 312 198 300 245 300 c 0
 286 300 331 309 355 317 c 1
 335 412 288 486 242 492 c 1
 203 486 157 414 157 350 c 0
EndSplineSet
Colour: ffda6b
EndChar

StartChar: _.qaf.isol
Encoding: 65568 -1 32
GlifName: _.qaf.isol
Width: 837
VWidth: 1304
GlyphClass: 1
UnlinkRmOvrlpSave: 1
Flags: HMW
LayerCount: 2
Fore
SplineSet
523 393 m 0
 526 393 530 393 533 393 c 0
 671 382 737 199 737 32 c 0
 737 -10 737 -44 736 -78 c 0
 716 -221 489 -299 338 -299 c 0
 337 -299 337 -299 336 -299 c 0
 200 -299 100 -224 100 -65 c 0
 100 -3 115 71 149 159 c 1
 199 143 l 1
 178 80 168 25 168 -20 c 0
 168 -141 237 -200 338 -200 c 0
 435 -200 578 -158 646 -109 c 1
 650 -85 651 -58 651 -32 c 0
 651 -14 651 4 650 22 c 1
 612 8 568 -1 525 -1 c 0
 438 -1 358 36 358 143 c 0
 359 265 420 386 523 393 c 0
443 150 m 0
 443 112 483 100 529 100 c 0
 570 100 616 109 640 118 c 1
 620 213 574 287 528 293 c 1
 487 287 443 214 443 150 c 0
EndSplineSet
Colour: ffda6b
EndChar

StartChar: _.qaf.fina
Encoding: 65569 -1 33
GlifName: _.qaf.fina
Width: 837
VWidth: 1304
GlyphClass: 1
UnlinkRmOvrlpSave: 1
Flags: HMW
LayerCount: 2
Fore
SplineSet
523 393 m 0
 526 393 530 393 533 393 c 0
 652 384 717 245 733 100 c 1
 837 100 l 1
 837 -0 l 1
 737 -0 l 1
 737 -28 737 -53 736 -78 c 0
 716 -221 489 -299 338 -299 c 0
 337 -299 337 -299 336 -299 c 0
 200 -299 100 -224 100 -65 c 0
 100 -3 115 71 149 159 c 1
 199 143 l 1
 178 80 168 25 168 -20 c 0
 168 -141 237 -200 338 -200 c 0
 435 -200 578 -158 646 -109 c 1
 651 -76 651 -37 651 -0 c 1
 524 -0 l 2
 438 0 358 37 358 143 c 0
 359 265 420 386 523 393 c 0
443 149 m 0
 443 112 483 101 528 100 c 1
 643 100 l 1
 626 203 576 287 528 293 c 1
 487 287 443 213 443 149 c 0
EndSplineSet
Colour: ffda6b
EndChar

StartChar: _.kaf.isol.fa
Encoding: 65570 -1 34
GlifName: _.kaf.isol.fa
Width: 1103
VWidth: 1304
GlyphClass: 1
UnlinkRmOvrlpSave: 1
Flags: HMW
LayerCount: 2
Fore
SplineSet
447 -15 m 0
 280 -15 100 44 100 208 c 0
 100 257 116 315 150 384 c 1
 209 358 l 1
 187 315 176 278 176 247 c 0
 176 125 332 89 459 89 c 0
 578 89 702 119 776 155 c 0
 776 156 778 156 779 156 c 0
 779 160 779 165 779 169 c 0
 779 235 723 315 561 484 c 1
 541 502 l 1
 611 623 l 1
 1003 748 l 1
 977 640 l 1
 647 533 l 1
 809 370 851 293 851 216 c 0
 851 157 838 80 784 55 c 0
 693 15 568 -15 447 -15 c 0
EndSplineSet
Colour: ffda6b
EndChar

StartChar: _.kaf.isol.ar
Encoding: 65571 -1 35
GlifName: _.kaf.isol.ar
Width: 900
VWidth: 1304
GlyphClass: 1
UnlinkRmOvrlpSave: 1
Flags: HMW
LayerCount: 2
Fore
SplineSet
90 102 m 0
 90 119 93 171 111 171 c 0
 117 171 122 167 125 162 c 0
 163 120 247 100 381 100 c 0
 610 100 713 139 720 229 c 1
 720 769 l 2
 720 789 743 800 766 800 c 0
 788 800 810 790 810 769 c 2
 810 241 l 1
 812 79 677 0 398 0 c 0
 277 0 183 14 115 45 c 0
 99 53 90 71 90 102 c 0
EndSplineSet
Colour: ffda6b
EndChar

StartChar: _.kaf.fina.fa
Encoding: 65572 -1 36
GlifName: _.kaf.fina.fa
Width: 1121
VWidth: 1304
GlyphClass: 1
UnlinkRmOvrlpSave: 1
Flags: HMW
LayerCount: 2
Fore
SplineSet
447 -15 m 0
 280 -15 100 44 100 208 c 0
 100 257 116 315 150 384 c 1
 209 358 l 1
 187 315 176 278 176 247 c 0
 176 125 332 89 459 89 c 0
 578 89 702 119 776 155 c 0
 776 156 778 156 779 156 c 0
 779 160 779 164 779 168 c 0
 779 198 767 233 739 276 c 0
 687 350 646 395 561 484 c 1
 541 502 l 1
 611 623 l 1
 1003 748 l 1
 977 640 l 1
 647 533 l 1
 709 471 753 422 784 380 c 0
 848 301 861 266 899 219 c 0
 946 161 973 100 1121 100 c 1
 1121 -0 l 1
 961 0 910 50 841 134 c 1
 832 100 816 70 784 55 c 0
 693 15 568 -15 447 -15 c 0
EndSplineSet
Colour: ffda6b
EndChar

StartChar: _.kaf.fina.ar
Encoding: 65573 -1 37
GlifName: _.kaf.fina.ar
Width: 1009
VWidth: 1304
GlyphClass: 1
UnlinkRmOvrlpSave: 1
Flags: HMW
LayerCount: 2
Fore
SplineSet
90 102 m 0
 90 119 93 171 111 171 c 0
 117 171 122 167 125 162 c 0
 163 120 247 100 381 100 c 0
 610 100 713 139 720 229 c 1
 720 769 l 2
 720 789 743 800 766 800 c 0
 788 800 810 790 810 769 c 2
 810 274 l 1
 816 140 901 100 1009 100 c 1
 1009 0 l 1
 892 0 812 37 768 108 c 1
 709 35 586 0 398 0 c 0
 277 0 183 14 115 45 c 0
 99 53 90 71 90 102 c 0
EndSplineSet
Colour: ffda6b
EndChar

StartChar: _.kaf.medi
Encoding: 65574 -1 38
GlifName: _.kaf.medi
Width: 626
VWidth: 1304
GlyphClass: 1
UnlinkRmOvrlpSave: 1
Flags: HMW
LayerCount: 2
Fore
SplineSet
-50 50 m 0
 -50 75 -26 100 -1 100 c 2
 82 100 l 2
 171 100 242 125 284 157 c 1
 284 161 284 166 284 170 c 0
 284 200 272 233 244 276 c 0
 192 350 151 396 66 484 c 1
 46 502 l 1
 116 623 l 1
 508 748 l 1
 482 640 l 1
 152 533 l 1
 214 471 258 422 289 380 c 0
 353 301 366 266 404 219 c 0
 451 161 478 100 626 100 c 1
 626 -0 l 1
 466 0 415 50 346 134 c 0
 345 135 344 135 344 136 c 1
 330 103 302 69 271 49 c 0
 219 15 147 0 82 -0 c 2
 -1 -0 l 1
 -26 1 -50 24 -50 50 c 0
EndSplineSet
Colour: ffda6b
EndChar

StartChar: _.kaf.init
Encoding: 65575 -1 39
GlifName: _.kaf.init
Width: 608
VWidth: 1304
GlyphClass: 1
UnlinkRmOvrlpSave: 1
Flags: HMW
LayerCount: 2
Fore
SplineSet
-50 50 m 0
 -50 75 -26 100 -1 100 c 2
 82 100 l 2
 171 100 242 125 284 157 c 1
 284 160 284 164 284 168 c 0
 284 234 228 315 66 484 c 1
 46 502 l 1
 116 623 l 1
 508 748 l 1
 482 640 l 1
 152 533 l 1
 314 369 356 293 356 215 c 0
 356 196 354 176 350 156 c 0
 343 119 309 72 271 49 c 0
 219 15 147 0 82 -0 c 2
 -1 -0 l 1
 -26 1 -50 24 -50 50 c 0
EndSplineSet
Colour: ffda6b
EndChar

StartChar: _.kaf_hamze.isol.ar
Encoding: 65576 -1 40
GlifName: _.kaf_hamze.isol.ar
Width: 430
VWidth: 1304
GlyphClass: 1
UnlinkRmOvrlpSave: 1
Flags: HMW
LayerCount: 2
Fore
SplineSet
90 306 m 0
 90 323 97 340 110 343 c 0
 121 343 257 349 257 385 c 0
 257 395 148 415 148 493 c 0
 148 566 256 610 318 610 c 0
 319 610 l 0
 334 610 340 596 340 580 c 0
 340 562 332 543 318 543 c 0
 291 543 205 530 205 493 c 0
 205 487 214 480 230 473 c 0
 267 455 313 435 313 386 c 0
 313 313 167 274 110 274 c 0
 96 275 90 290 90 306 c 0
EndSplineSet
Colour: ffda6b
EndChar

StartChar: _.ghaf.isol
Encoding: 65577 -1 41
GlifName: _.ghaf.isol
Width: 1103
VWidth: 0
GlyphClass: 1
UnlinkRmOvrlpSave: 1
Flags: HMW
LayerCount: 2
Fore
SplineSet
447 -15 m 0
 280 -15 100 44 100 208 c 0
 100 257 116 315 150 384 c 1
 209 358 l 1
 187 315 176 278 176 247 c 0
 176 125 332 89 459 89 c 0
 578 89 702 119 776 155 c 0
 776 156 778 156 779 156 c 0
 779 160 779 165 779 169 c 0
 779 235 723 315 561 484 c 1
 541 502 l 1
 611 623 l 1
 1003 748 l 1
 977 640 l 1
 647 533 l 1
 809 370 851 293 851 216 c 0
 851 157 838 80 784 55 c 0
 693 15 568 -15 447 -15 c 0
612 714 m 1
 631 779 l 1
 926 878 l 1
 905 812 l 1
 612 714 l 1
EndSplineSet
Colour: ffda6b
EndChar

StartChar: _.ghaf.fina
Encoding: 65578 -1 42
GlifName: _.ghaf.fina
Width: 1121
VWidth: 0
GlyphClass: 1
Flags: HMW
LayerCount: 2
Fore
SplineSet
447 -15 m 0
 280 -15 100 44 100 208 c 0
 100 257 116 315 150 384 c 1
 209 358 l 1
 187 315 176 278 176 247 c 0
 176 125 332 89 459 89 c 0
 578 89 702 119 776 155 c 0
 776 156 778 156 779 156 c 0
 779 160 779 164 779 168 c 0
 779 198 767 233 739 276 c 0
 687 350 646 395 561 484 c 1
 541 502 l 1
 611 623 l 1
 1003 748 l 1
 977 640 l 1
 647 533 l 1
 709 471 753 422 784 380 c 0
 848 301 861 266 899 219 c 0
 946 161 973 100 1121 100 c 1
 1121 -0 l 1
 961 0 910 50 841 134 c 1
 832 100 816 70 784 55 c 0
 693 15 568 -15 447 -15 c 0
612 714 m 1
 631 779 l 1
 926 878 l 1
 905 812 l 1
 612 714 l 1
EndSplineSet
Colour: ffda6b
EndChar

StartChar: _.lam.isol
Encoding: 65580 -1 44
GlifName: _.lam.isol
Width: 809
VWidth: 1304
GlyphClass: 1
UnlinkRmOvrlpSave: 1
Flags: HMW
LayerCount: 2
Fore
SplineSet
100 -65 m 0
 100 -3 115 71 149 159 c 1
 199 143 l 1
 178 80 168 25 168 -20 c 0
 168 -141 237 -200 338 -200 c 0
 440 -200 550 -144 613 -90 c 1
 618 757 l 1
 709 800 l 1
 709 263 l 2
 709 231 709 202 709 176 c 0
 709 67 705 0 696 -68 c 0
 675 -211 489 -299 338 -299 c 0
 337 -299 337 -299 336 -299 c 0
 200 -299 100 -224 100 -65 c 0
EndSplineSet
Colour: ffda6b
EndChar

StartChar: _.lam.fina
Encoding: 65581 -1 45
GlifName: _.lam.fina
Width: 839
VWidth: 1304
GlyphClass: 1
UnlinkRmOvrlpSave: 1
Flags: HMW
LayerCount: 2
Fore
SplineSet
100 -65 m 0
 100 -3 115 71 149 159 c 1
 199 143 l 1
 178 80 168 25 168 -20 c 0
 168 -141 237 -200 338 -200 c 0
 440 -200 550 -144 613 -90 c 1
 618 757 l 1
 709 800 l 1
 709 167 l 1
 726 117 766 100 839 100 c 1
 839 -0 l 1
 781 0 738 9 705 26 c 1
 703 -7 700 -37 696 -68 c 0
 675 -211 489 -299 338 -299 c 0
 337 -299 337 -299 336 -299 c 0
 200 -299 100 -224 100 -65 c 0
EndSplineSet
Colour: ffda6b
EndChar

StartChar: _.lam.medi
Encoding: 65582 -1 46
GlifName: _.lam.medi
Width: 385
VWidth: 1304
GlyphClass: 1
UnlinkRmOvrlpSave: 1
Flags: HMW
LayerCount: 2
Fore
SplineSet
-50 50 m 0
 -49 76 -25 100 0 100 c 0
 69 100 125 106 173 123 c 1
 173 757 l 1
 264 800 l 1
 264 150 l 1
 285 113 322 100 385 100 c 1
 385 -0 l 1
 305 0 252 16 216 52 c 1
 166 10 81 0 0 -0 c 0
 -25 0 -50 24 -50 50 c 0
EndSplineSet
Colour: ffda6b
EndChar

StartChar: _.lam.init
Encoding: 65583 -1 47
GlifName: _.lam.init
Width: 364
VWidth: 1304
GlyphClass: 1
UnlinkRmOvrlpSave: 1
Flags: HMW
LayerCount: 2
Fore
SplineSet
-50 50 m 0
 -49 76 -25 100 0 100 c 0
 69 100 126 106 174 123 c 1
 152 756 l 1
 242 801 l 1
 264 149 l 1
 258 25 126 0 0 -0 c 0
 -25 0 -50 24 -50 50 c 0
EndSplineSet
Colour: ffda6b
EndChar

StartChar: _.mim.isol
Encoding: 65584 -1 48
GlifName: _.mim.isol
Width: 701
VWidth: 1304
GlyphClass: 1
UnlinkRmOvrlpSave: 1
Flags: HMW
LayerCount: 2
Fore
SplineSet
601 138 m 0
 601 53 561 -10 484 -10 c 0
 436 -10 338 20 302 43 c 1
 276 54 l 2
 261 61 246 64 233 64 c 0
 217 64 203 60 191 52 c 1
 191 -298 l 1
 100 -341 l 1
 100 17 l 1
 102 113 155 162 220 166 c 1
 291 319 l 1
 314 366 355 391 395 391 c 0
 400 391 405 391 410 390 c 0
 520 370 601 257 601 138 c 0
312 152 m 1
 317 149 l 1
 372 115 460 90 510 90 c 1
 512 95 512 102 512 109 c 0
 512 168 462 279 391 292 c 0
 390 292 388 292 387 292 c 0
 376 292 372 282 362 262 c 2
 312 152 l 1
EndSplineSet
Colour: ffda6b
EndChar

StartChar: _.mim.fina
Encoding: 65585 -1 49
GlifName: _.mim.fina
Width: 724
VWidth: 1304
GlyphClass: 1
UnlinkRmOvrlpSave: 1
Flags: HMW
LayerCount: 2
Fore
SplineSet
397 -70 m 0
 309 -70 277 22 277 112 c 0
 277 131 278 151 281 170 c 1
 248 155 217 139 191 121 c 1
 191 -298 l 1
 100 -341 l 1
 100 106 l 2
 100 196 198 254 456 334 c 1
 448 369 l 1
 537 410 l 1
 586 180 l 2
 601 110 645 100 724 100 c 1
 724 -0 l 1
 656 0 605 9 568 32 c 1
 509 -31 450 -70 397 -70 c 0
374 123 m 0
 374 84 381 50 400 37 c 1
 450 40 488 76 511 102 c 1
 505 117 499 135 495 155 c 2
 477 240 l 1
 446 231 414 222 383 211 c 1
 377 183 374 151 374 123 c 0
EndSplineSet
Colour: ffda6b
EndChar

StartChar: _.mim.medi
Encoding: 65586 -1 50
GlifName: _.mim.medi
Width: 679
VWidth: 1304
GlyphClass: 1
UnlinkRmOvrlpSave: 1
Flags: HMW
LayerCount: 2
Fore
SplineSet
-50 50 m 0
 -50 75 -26 100 -1 100 c 0
 117 100 134 115 177 207 c 2
 234 329 l 2
 256 376 297 401 337 401 c 0
 342 401 348 401 353 400 c 0
 453 383 529 286 541 180 c 1
 557 110 601 100 679 100 c 1
 679 -0 l 1
 604 0 550 11 513 39 c 1
 493 14 464 0 426 -0 c 0
 382 1 278 26 241 56 c 1
 223 104 l 1
 180 34 126 0 -1 -0 c 0
 -26 1 -50 24 -50 50 c 0
255 162 m 1
 311 128 398 100 452 100 c 1
 454 106 455 112 455 120 c 0
 455 129 454 139 451 150 c 1
 451 151 l 1
 437 211 393 290 333 301 c 0
 332 301 330 302 329 302 c 0
 319 302 316 292 306 272 c 2
 255 162 l 1
EndSplineSet
Colour: ffda6b
EndChar

StartChar: _.mim.init
Encoding: 65587 -1 51
GlifName: _.mim.init
Width: 643
VWidth: 1304
GlyphClass: 1
UnlinkRmOvrlpSave: 1
Flags: HMW
LayerCount: 2
Fore
SplineSet
543 149 m 0
 543 64 505 0 426 -0 c 0
 382 1 278 26 241 56 c 1
 223 104 l 1
 180 34 126 0 -1 -0 c 0
 -26 1 -50 24 -50 50 c 0
 -50 75 -26 100 -1 100 c 0
 117 100 134 115 177 207 c 2
 234 329 l 2
 256 376 297 401 337 401 c 0
 342 401 348 401 353 400 c 0
 462 382 543 267 543 149 c 0
255 162 m 1
 311 128 398 100 452 100 c 1
 454 105 455 112 455 119 c 0
 455 178 404 288 333 301 c 0
 332 301 330 302 329 302 c 0
 319 302 316 292 306 272 c 2
 255 162 l 1
EndSplineSet
Colour: ffda6b
EndChar

StartChar: _.nun.isol
Encoding: 65588 -1 52
GlifName: _.nun.isol
Width: 839
VWidth: 1305
GlyphClass: 1
UnlinkRmOvrlpSave: 1
Flags: HMW
LayerCount: 2
Fore
SplineSet
100 -65 m 0
 100 -3 115 71 148 159 c 1
 198 143 l 1
 177 80 168 26 168 -19 c 0
 168 -140 237 -200 339 -200 c 0
 440 -200 592 -154 655 -100 c 1
 655 -98 656 -96 656 -93 c 0
 656 -52 631 119 586 248 c 1
 679 292 l 1
 714 188 739 55 739 -35 c 0
 739 -51 738 -65 736 -78 c 0
 715 -221 489 -299 339 -299 c 0
 338 -299 337 -299 336 -299 c 0
 199 -299 100 -224 100 -65 c 0
EndSplineSet
Colour: ffda6b
EndChar

StartChar: _.nun.fina
Encoding: 65589 -1 53
GlifName: _.nun.fina
Width: 879
VWidth: 1413
GlyphClass: 1
UnlinkRmOvrlpSave: 1
Flags: HMW
LayerCount: 2
Fore
SplineSet
100 -65 m 0
 100 -3 115 71 148 159 c 1
 198 143 l 1
 177 80 168 26 168 -19 c 0
 168 -140 237 -200 339 -200 c 0
 440 -200 592 -154 655 -100 c 1
 655 -98 656 -96 656 -93 c 0
 656 -52 631 119 586 248 c 1
 679 292 l 1
 693 253 703 208 713 165 c 1
 731 116 770 100 841 100 c 2
 879 100 l 1
 879 -0 l 1
 841 -0 l 2
 799 0 764 3 736 13 c 1
 737 -4 738 -21 738 -36 c 0
 738 -51 737 -66 736 -78 c 0
 715 -221 489 -299 339 -299 c 0
 338 -299 337 -299 336 -299 c 0
 199 -299 100 -224 100 -65 c 0
EndSplineSet
Colour: ffda6b
EndChar

StartChar: _.vav.isol
Encoding: 65590 -1 54
GlifName: _.vav.isol
Width: 563
VWidth: 1304
GlyphClass: 1
UnlinkRmOvrlpSave: 1
Flags: HMW
LayerCount: 2
Fore
SplineSet
270 393 m 0
 273 393 277 393 280 393 c 0
 445 384 463 144 463 17 c 0
 463 12 463 8 463 4 c 0
 442 -160 282 -260 126 -301 c 1
 100 -203 l 1
 235 -165 330 -97 388 -11 c 1
 388 18 l 1
 352 6 313 -1 275 -1 c 0
 191 -1 115 36 115 143 c 0
 116 264 167 386 270 393 c 0
190 150 m 0
 190 112 232 100 278 100 c 0
 315 100 354 107 379 114 c 1
 364 204 331 287 276 293 c 1
 235 287 190 214 190 150 c 0
EndSplineSet
Colour: ffda6b
EndChar

StartChar: _.vav.fina
Encoding: 65591 -1 55
GlifName: _.vav.fina
Width: 568
VWidth: 1304
GlyphClass: 1
UnlinkRmOvrlpSave: 1
Flags: HMW
LayerCount: 2
Fore
SplineSet
100 -203 m 1
 235 -165 330 -97 388 -11 c 1
 388 -0 l 1
 265 -0 l 2
 181 0 105 36 105 143 c 0
 106 269 160 393 270 393 c 0
 412 393 451 230 461 100 c 1
 568 100 l 1
 568 -0 l 1
 463 -0 l 1
 440 -161 281 -262 126 -301 c 1
 100 -203 l 1
180 149 m 0
 180 111 222 100 269 100 c 2
 382 100 l 1
 367 198 333 292 270 293 c 0
 229 293 180 216 180 149 c 0
EndSplineSet
Colour: ffda6b
EndChar

StartChar: _.dal.isol
Encoding: 65592 -1 56
GlifName: _.dal.isol
Width: 612
VWidth: 1304
GlyphClass: 1
UnlinkRmOvrlpSave: 1
Flags: HMW
LayerCount: 2
Fore
SplineSet
100 123 m 0
 100 141 102 162 108 186 c 1
 152 171 l 1
 151 166 151 162 151 158 c 0
 151 100 227 100 274 100 c 0
 276 100 277 100 279 100 c 0
 328 100 378 107 428 127 c 1
 419 256 367 347 228 420 c 1
 253 517 l 1
 418 441 512 307 512 149 c 1
 505 33 396 0 288 -0 c 0
 287 0 286 0 285 -0 c 0
 218 0 100 0 100 123 c 0
EndSplineSet
Colour: ffda6b
EndChar

StartChar: _.dal.fina
Encoding: 65593 -1 57
GlifName: _.dal.fina
Width: 650
VWidth: 1304
GlyphClass: 1
UnlinkRmOvrlpSave: 1
Flags: HMW
LayerCount: 2
Fore
SplineSet
100 123 m 0
 100 141 102 162 108 186 c 1
 152 171 l 1
 151 166 151 162 151 158 c 0
 151 100 227 100 274 100 c 0
 276 100 277 100 279 100 c 0
 328 100 379 107 429 127 c 1
 338 452 l 1
 426 492 l 1
 512 180 l 2
 530 111 571 100 650 100 c 1
 650 -0 l 1
 563 0 507 14 470 55 c 1
 427 13 358 0 288 -0 c 0
 287 0 286 0 285 -0 c 0
 218 0 100 0 100 123 c 0
EndSplineSet
Colour: ffda6b
EndChar

StartChar: _.ree.isol
Encoding: 65594 -1 58
GlifName: _.ree.isol
Width: 564
VWidth: 1304
GlyphClass: 1
UnlinkRmOvrlpSave: 1
Flags: HMW
LayerCount: 2
Fore
SplineSet
100 -203 m 1
 235 -165 330 -97 388 -11 c 1
 378 42 353 139 328 215 c 1
 420 257 l 1
 447 165 464 82 464 26 c 0
 464 19 464 12 463 6 c 2
 463 4 l 1
 442 -160 282 -260 126 -301 c 1
 100 -203 l 1
EndSplineSet
Colour: ffda6b
EndChar

StartChar: _.ree.fina
Encoding: 65595 -1 59
GlifName: _.ree.fina
Width: 573
VWidth: 1304
GlyphClass: 1
UnlinkRmOvrlpSave: 1
Flags: HMW
LayerCount: 2
Fore
SplineSet
463 15 m 1
 463 11 463 8 463 4 c 0
 442 -160 282 -260 126 -301 c 1
 100 -203 l 1
 235 -165 330 -97 388 -11 c 1
 378 42 353 139 328 215 c 1
 420 257 l 1
 427 231 435 206 441 181 c 0
 457 119 495 100 573 100 c 1
 573 -0 l 1
 529 0 493 5 463 15 c 1
EndSplineSet
Colour: ffda6b
EndChar

StartChar: _.he8.isol
Encoding: 65596 -1 60
GlifName: _.he8.isol
Width: 560
VWidth: 1304
GlyphClass: 1
UnlinkRmOvrlpSave: 1
Flags: HMW
LayerCount: 2
Fore
SplineSet
274 -1 m 0
 158 -1 100 47 100 128 c 0
 100 191 135 272 201 359 c 1
 192 364 184 369 175 374 c 1
 202 471 l 1
 352 396 460 297 460 149 c 1
 453 40 373 -1 274 -1 c 0
176 146 m 0
 176 117 200 100 266 100 c 0
 316 100 344 100 376 127 c 1
 367 207 331 262 271 311 c 1
 222 247 176 186 176 146 c 0
EndSplineSet
Colour: ffda6b
EndChar

StartChar: _.he8.fina
Encoding: 65597 -1 61
GlifName: _.he8.fina
Width: 625
VWidth: 1304
GlyphClass: 1
UnlinkRmOvrlpSave: 1
Flags: HMW
LayerCount: 2
Fore
SplineSet
100 176 m 0
 100 298 230 385 342 411 c 1
 328 476 l 1
 417 518 l 1
 487 180 l 2
 501 110 546 100 625 100 c 1
 625 -0 l 1
 506 0 439 27 407 112 c 1
 377 68 l 1
 355 58 315 54 275 54 c 0
 239 54 203 58 183 63 c 0
 126 77 100 121 100 176 c 0
173 175 m 1
 202 168 249 161 295 161 c 0
 327 161 360 164 385 172 c 1
 391 172 l 1
 361 316 l 1
 267 304 178 229 173 175 c 1
EndSplineSet
Colour: ffda6b
EndChar

StartChar: _.he8.medi
Encoding: 65598 -1 62
GlifName: _.he8.medi
Width: 600
VWidth: 1304
GlyphClass: 1
UnlinkRmOvrlpSave: 1
Flags: HMW
LayerCount: 2
Fore
SplineSet
458 292 m 0
 458 226 446 168 418 104 c 1
 442 100 472 99 510 99 c 0
 536 99 566 100 600 100 c 1
 600 -0 l 1
 556 0 517 2 484 6 c 1
 494 -23 499 -52 499 -78 c 0
 499 -160 453 -221 390 -221 c 0
 272 -221 132 -135 111 2 c 1
 89 1 65 0 40 -0 c 2
 -1 -0 l 2
 -25 0 -50 24 -50 49 c 0
 -50 76 -27 100 -1 100 c 2
 40 100 l 2
 66 100 91 101 116 102 c 1
 148 292 283 458 390 460 c 1
 431 449 458 378 458 292 c 0
195 11 m 1
 211 -59 335 -100 393 -100 c 1
 393 -95 394 -86 394 -73 c 0
 394 -47 384 14 340 52 c 1
 301 34 253 20 195 11 c 1
205 112 m 1
 260 122 305 136 332 156 c 1
 349 165 363 222 363 278 c 0
 363 301 361 324 355 343 c 1
 296 304 231 210 205 112 c 1
EndSplineSet
Colour: ffda6b
EndChar

StartChar: _.he8.init
Encoding: 65599 -1 63
GlifName: _.he8.init
Width: 754
VWidth: 1304
GlyphClass: 1
UnlinkRmOvrlpSave: 1
Flags: HMW
LayerCount: 2
Fore
SplineSet
-50 50 m 0
 -50 76 -26 100 0 100 c 0
 44 100 85 103 122 109 c 1
 88 147 71 190 72 237 c 1
 72 239 l 1
 78 384 186 469 244 470 c 0
 246 470 248 470 250 469 c 1
 239 475 228 480 216 486 c 1
 253 578 l 1
 468 477 654 358 654 149 c 1
 647 35 542 0 436 -0 c 0
 434 0 432 0 430 -0 c 0
 351 0 282 14 225 39 c 1
 165 16 90 0 0 -0 c 0
 -26 0 -50 24 -50 50 c 0
140 231 m 1
 156 199 185 167 231 144 c 1
 285 169 322 204 343 246 c 1
 328 320 266 369 244 369 c 0
 221 369 160 317 140 231 c 1
405 241 m 0
 405 187 385 151 337 108 c 1
 365 103 395 101 429 100 c 0
 476 101 522 109 570 127 c 1
 556 257 461 351 332 426 c 1
 372 388 405 325 405 241 c 0
EndSplineSet
Colour: ffda6b
EndChar

StartChar: _.yeh.fina
Encoding: 65600 -1 64
GlifName: _.yeh.fina
Width: 840
VWidth: 1304
GlyphClass: 1
UnlinkRmOvrlpSave: 1
Flags: HMW
LayerCount: 2
Fore
SplineSet
100 -65 m 0
 100 -3 115 71 148 159 c 1
 198 143 l 1
 177 80 168 26 168 -19 c 0
 168 -140 237 -200 339 -200 c 0
 440 -200 592 -154 655 -100 c 0
 659 -97 661 -91 661 -85 c 0
 661 -55 614 -1 495 -1 c 0
 494 -1 492 -1 491 -1 c 1
 491 -0 l 1
 463 -0 l 1
 490 100 l 1
 840 100 l 1
 840 -0 l 1
 723 -0 l 1
 732 -18 737 -39 737 -63 c 0
 737 -68 736 -73 736 -78 c 0
 715 -221 489 -299 339 -299 c 0
 338 -299 337 -299 336 -299 c 0
 199 -299 100 -224 100 -65 c 0
EndSplineSet
Colour: ffda6b
EndChar

StartChar: _.yeh.isol
Encoding: 65601 -1 65
GlifName: _.yeh.isol
Width: 864
VWidth: 1304
GlyphClass: 1
UnlinkRmOvrlpSave: 1
Flags: HMW
LayerCount: 2
Fore
SplineSet
739 -17 m 0
 739 -187 497 -270 339 -270 c 0
 200 -270 100 -195 100 -35 c 0
 100 27 115 100 148 188 c 1
 198 173 l 1
 177 110 168 56 168 11 c 0
 168 -111 237 -170 339 -170 c 0
 440 -169 592 -124 655 -70 c 0
 660 -66 670 -54 670 -41 c 0
 670 -22 649 0 559 -0 c 0
 486 0 423 16 423 81 c 0
 423 87 424 94 425 101 c 0
 449 246 536 342 667 342 c 0
 697 342 730 337 764 326 c 1
 739 230 l 1
 714 237 692 240 671 240 c 0
 569 240 515 167 499 100 c 1
 559 100 l 2
 683 100 739 57 739 -17 c 0
EndSplineSet
Colour: ffda6b
EndChar

StartChar: _.hamze.isol
Encoding: 65602 -1 66
GlifName: _.hamze.isol
Width: 539
VWidth: 1304
GlyphClass: 2
Flags: HMW
LayerCount: 2
Fore
SplineSet
212 232 m 0
 212 212 233 170 256 170 c 0
 263 170 277 174 297 180 c 0
 317 187 356 194 416 204 c 0
 417 204 420 205 421 205 c 0
 439 205 449 176 449 149 c 0
 449 130 444 112 431 107 c 1
 358 93 320 86 314 84 c 0
 264 68 206 40 141 -1 c 0
 137 -4 133 -5 129 -5 c 0
 108 -5 90 32 90 60 c 0
 90 72 93 82 100 86 c 0
 139 109 157 119 164 123 c 1
 134 158 121 195 121 230 c 0
 121 323 209 405 298 405 c 0
 333 405 369 393 404 367 c 0
 406 365 408 362 408 357 c 0
 408 335 381 288 360 288 c 0
 357 288 354 288 352 290 c 0
 334 303 312 306 293 306 c 0
 259 306 212 275 212 232 c 0
EndSplineSet
Colour: ffda6b
EndChar

StartChar: _.keshide.medi
Encoding: 65603 -1 67
GlifName: _.keshide.medi
Width: 350
VWidth: 1304
GlyphClass: 2
Flags: HMW
LayerCount: 2
Fore
SplineSet
-50 -0 m 1
 -50 100 l 1
 350 100 l 1
 350 -0 l 1
 -50 -0 l 1
EndSplineSet
Colour: ffda6b
EndChar

StartChar: _.dot.1u
Encoding: 65604 -1 68
GlifName: _.dot.1u
Width: 0
VWidth: 1304
GlyphClass: 2
Flags: HMW
LayerCount: 2
Fore
SplineSet
0 -0 m 1
 0 109 l 1
 110 109 l 1
 110 -0 l 1
 0 -0 l 1
EndSplineSet
Colour: ffda6b
EndChar

StartChar: _.dot.2u
Encoding: 65605 -1 69
GlifName: _.dot.2u
Width: 0
VWidth: 1304
GlyphClass: 2
UnlinkRmOvrlpSave: 1
Flags: HMW
LayerCount: 2
Fore
SplineSet
0 -0 m 1
 0 102 l 1
 102 102 l 1
 102 -0 l 1
 0 -0 l 1
154 -0 m 1
 154 102 l 1
 256 102 l 1
 256 -0 l 1
 154 -0 l 1
EndSplineSet
Colour: ffda6b
EndChar

StartChar: _.dot.3u
Encoding: 65606 -1 70
GlifName: _.dot.3u
Width: 0
VWidth: 1304
GlyphClass: 2
UnlinkRmOvrlpSave: 1
Flags: HMW
LayerCount: 2
Fore
SplineSet
0 -0 m 1
 0 102 l 1
 102 102 l 1
 102 -0 l 1
 0 -0 l 1
79 150 m 1
 79 252 l 1
 181 252 l 1
 181 150 l 1
 79 150 l 1
154 -0 m 1
 154 102 l 1
 256 102 l 1
 256 -0 l 1
 154 -0 l 1
EndSplineSet
Colour: ffda6b
EndChar

StartChar: _.dot.1d
Encoding: 65607 -1 71
GlifName: _.dot.1d
Width: 0
VWidth: 1304
GlyphClass: 2
Flags: HMW
LayerCount: 2
Fore
SplineSet
0 -0 m 1
 110 -0 l 1
 110 -110 l 1
 0 -110 l 1
 0 -0 l 1
EndSplineSet
Colour: ffda6b
EndChar

StartChar: _.dot.2d
Encoding: 65608 -1 72
GlifName: _.dot.2d
Width: 0
VWidth: 1304
GlyphClass: 2
UnlinkRmOvrlpSave: 1
Flags: HMW
LayerCount: 2
Fore
SplineSet
0 2 m 1
 102 2 l 1
 102 -100 l 1
 0 -100 l 1
 0 2 l 1
154 2 m 1
 256 2 l 1
 256 -100 l 1
 154 -100 l 1
 154 2 l 1
EndSplineSet
Colour: ffda6b
EndChar

StartChar: _.dot.3d
Encoding: 65609 -1 73
GlifName: _.dot.3d
Width: 0
VWidth: 1304
GlyphClass: 2
UnlinkRmOvrlpSave: 1
Flags: HMW
LayerCount: 2
Fore
SplineSet
0 2 m 1
 102 2 l 1
 102 -100 l 1
 0 -100 l 1
 0 2 l 1
79 -138 m 1
 181 -138 l 1
 181 -240 l 1
 79 -240 l 1
 79 -138 l 1
154 2 m 1
 256 2 l 1
 256 -100 l 1
 154 -100 l 1
 154 2 l 1
EndSplineSet
Colour: ffda6b
EndChar

StartChar: _.num.0.fa
Encoding: 65611 -1 75
GlifName: _.num.0
Width: 478
VWidth: 1424
GlyphClass: 2
Flags: HMW
LayerCount: 2
Fore
SplineSet
90 300 m 0
 90 387 148 465 240 465 c 0
 325 465 388 391 388 309 c 0
 388 225 325 152 239 152 c 0
 158 152 90 218 90 300 c 0
178 307 m 0
 178 277 198 248 241 248 c 0
 282 248 303 279 303 309 c 0
 303 339 282 370 241 370 c 0
 199 370 178 338 178 307 c 0
EndSplineSet
Colour: ffda6b
EndChar

StartChar: _.num.1
Encoding: 65612 -1 76
GlifName: _.num.1
Width: 400
VWidth: 1331
GlyphClass: 2
Flags: HMW
LayerCount: 2
Fore
SplineSet
90 633 m 0
 90 667 122 695 152 695 c 0
 168 695 183 687 192 668 c 0
 307 434 310 230 310 35 c 0
 310 23 310 12 310 -0 c 1
 306 -21 284 -32 262 -32 c 0
 240 -32 220 -21 219 -0 c 0
 218 174 226 354 97 605 c 0
 92 615 90 624 90 633 c 0
EndSplineSet
Colour: ffda6b
EndChar

StartChar: _.num.2
Encoding: 65613 -1 77
GlifName: _.num.2
Width: 660
VWidth: 1331
GlyphClass: 2
Flags: HMW
LayerCount: 2
Fore
SplineSet
90 633 m 0
 90 667 122 695 152 695 c 0
 168 695 183 687 192 668 c 0
 210 632 225 596 237 562 c 0
 256 504 285 480 349 480 c 0
 406 480 473 528 473 638 c 0
 473 644 473 650 473 657 c 0
 473 683 500 702 526 702 c 0
 548 702 569 689 570 656 c 0
 570 648 570 641 570 634 c 0
 570 460 460 379 351 379 c 0
 329 379 307 380 287 384 c 1
 309 262 310 146 310 33 c 0
 310 22 310 11 310 -0 c 1
 306 -21 284 -32 262 -32 c 0
 240 -32 220 -21 219 -0 c 0
 218 148 224 300 146 496 c 1
 146 497 l 1
 132 531 117 567 97 605 c 0
 92 615 90 624 90 633 c 0
EndSplineSet
Colour: ffda6b
EndChar

StartChar: _.num.3
Encoding: 65614 -1 78
GlifName: _.num.3
Width: 851
VWidth: 1331
GlyphClass: 2
Flags: HMW
LayerCount: 2
Fore
SplineSet
716 692 m 0
 746 692 761 670 761 629 c 0
 761 478 669 382 571 382 c 0
 531 382 491 398 455 432 c 1
 419 393 372 374 325 374 c 0
 313 374 300 375 288 378 c 1
 309 259 310 146 310 35 c 0
 310 23 310 12 310 -0 c 1
 306 -21 284 -32 262 -32 c 0
 240 -32 220 -21 219 -0 c 0
 218 148 224 300 146 496 c 1
 146 497 l 1
 132 531 117 567 97 605 c 0
 92 615 90 624 90 633 c 0
 90 667 122 695 152 695 c 0
 168 695 183 687 192 668 c 0
 212 629 225 591 241 554 c 1
 261 502 296 476 330 476 c 0
 394 476 423 552 423 628 c 0
 423 637 422 647 422 657 c 0
 422 684 450 702 476 702 c 0
 498 702 519 689 521 656 c 0
 521 648 521 640 521 632 c 0
 521 595 516 563 508 533 c 1
 528 497 552 482 574 482 c 0
 621 482 663 548 663 629 c 0
 663 635 662 641 662 647 c 0
 662 674 690 692 716 692 c 0
EndSplineSet
Colour: ffda6b
EndChar

StartChar: _.num.4.fa
Encoding: 65615 -1 79
GlifName: _.num.4.fa
Width: 767
VWidth: 1331
GlyphClass: 2
Flags: HMW
LayerCount: 2
Fore
SplineSet
527 588 m 0
 453 588 407 554 407 490 c 0
 407 453 425 414 469 383 c 1
 522 387 579 396 636 416 c 0
 638 417 640 417 642 417 c 0
 663 417 677 380 677 352 c 0
 677 337 672 323 663 320 c 0
 578 294 499 278 426 278 c 0
 382 278 339 283 299 296 c 1
 310 194 310 96 310 -0 c 1
 306 -21 284 -32 262 -32 c 0
 240 -32 220 -21 219 -0 c 0
 218 174 226 354 97 605 c 0
 92 615 90 624 90 633 c 0
 90 667 122 695 152 695 c 0
 168 695 183 687 192 668 c 0
 234 582 261 501 278 422 c 1
 293 411 312 402 335 395 c 1
 317 419 308 455 308 492 c 0
 308 517 312 542 320 566 c 0
 344 634 413 693 515 693 c 0
 545 693 578 688 613 677 c 0
 627 673 632 662 632 648 c 0
 632 619 608 579 592 579 c 0
 591 579 591 580 590 580 c 0
 568 586 546 588 527 588 c 0
EndSplineSet
Colour: ffda6b
EndChar

StartChar: _.num.4.ar
Encoding: 65616 -1 80
GlifName: _.num.4.ar
Width: 541
VWidth: 1331
GlyphClass: 2
Flags: HMW
LayerCount: 2
Fore
SplineSet
90 176 m 0
 90 200 101 224 126 241 c 2
 239 315 l 2
 241 316 242 318 242 320 c 0
 242 340 186 406 127 493 c 0
 118 507 114 521 114 535 c 0
 114 562 130 586 152 596 c 2
 399 709 l 2
 401 710 403 710 405 710 c 0
 425 710 445 666 445 636 c 0
 445 624 442 613 434 610 c 2
 233 533 l 2
 227 531 225 526 225 521 c 0
 225 513 231 501 239 490 c 0
 279 425 349 344 349 299 c 0
 349 289 346 280 337 274 c 2
 196 181 l 1
 418 98 l 1
 442 90 451 74 451 57 c 0
 451 29 428 -2 404 -2 c 0
 401 -2 396 -1 393 -0 c 2
 134 109 l 2
 106 122 90 149 90 176 c 0
EndSplineSet
Colour: ffda6b
EndChar

StartChar: _.num.5.fa
Encoding: 65617 -1 81
GlifName: _.num.5.fa
Width: 758
VWidth: 1331
GlyphClass: 2
Flags: HMW
LayerCount: 2
Fore
SplineSet
90 178 m 0
 90 182 90 187 90 191 c 0
 96 288 153 411 298 571 c 1
 284 581 272 591 258 601 c 0
 251 606 248 612 248 620 c 0
 248 651 288 699 316 699 c 0
 320 699 324 698 328 695 c 0
 582 507 668 333 668 205 c 0
 668 77 582 -3 495 -3 c 0
 454 -3 413 15 380 54 c 1
 339 17 292 0 248 -0 c 0
 164 0 90 64 90 178 c 0
194 186 m 0
 194 127 225 99 258 99 c 0
 296 99 338 138 339 212 c 1
 430 212 l 1
 430 134 464 101 498 101 c 0
 534 101 570 137 570 198 c 0
 570 203 569 208 569 213 c 0
 563 284 515 386 381 505 c 1
 232 354 200 272 195 199 c 0
 195 195 194 190 194 186 c 0
EndSplineSet
Colour: ffda6b
EndChar

StartChar: _.num.5.ar
Encoding: 65618 -1 82
GlifName: _.num.5.ar
Width: 729
VWidth: 1331
GlyphClass: 2
Flags: HMW
LayerCount: 2
Fore
SplineSet
90 269 m 0
 90 430 176 586 351 693 c 1
 356 693 l 1
 544 598 639 429 639 244 c 0
 639 59 545 -4 358 -4 c 0
 178 -4 90 73 90 269 c 0
193 269 m 0
 193 148 248 109 356 109 c 0
 477 109 537 139 537 258 c 0
 537 360 477 481 356 560 c 1
 248 468 193 358 193 269 c 0
EndSplineSet
Colour: ffda6b
EndChar

StartChar: _.num.6.fa
Encoding: 65619 -1 83
GlifName: _.num.6.fa
Width: 659
VWidth: 1331
GlyphClass: 2
Flags: HMW
LayerCount: 2
Fore
SplineSet
90 9 m 0
 90 13 90 17 92 21 c 0
 147 110 199 182 263 248 c 1
 156 280 104 365 104 452 c 0
 104 482 110 512 122 540 c 0
 158 622 251 691 410 698 c 0
 411 698 411 698 412 698 c 0
 435 698 443 674 443 650 c 0
 443 625 434 599 422 598 c 0
 296 581 235 535 215 487 c 0
 211 476 209 465 209 454 c 0
 209 391 276 338 363 337 c 1
 401 367 443 395 491 423 c 0
 499 428 508 431 516 431 c 0
 546 431 569 399 569 368 c 0
 569 349 561 331 539 320 c 0
 357 225 262 119 170 -27 c 0
 164 -36 155 -40 145 -40 c 0
 120 -40 90 -16 90 9 c 0
EndSplineSet
Colour: ffda6b
EndChar

StartChar: _.num.6.ar
Encoding: 65620 -1 84
GlifName: _.num.6.ar
Width: 727
VWidth: 1331
GlyphClass: 2
Flags: HMW
LayerCount: 2
Fore
SplineSet
317 637 m 0
 394 637 452 661 489 673 c 1
 499 673 l 2
 500 673 503 673 504 673 c 0
 526 673 547 664 547 642 c 0
 547 640 547 638 547 636 c 0
 547 565 540 496 540 422 c 0
 540 317 555 203 630 58 c 0
 635 48 637 39 637 30 c 0
 637 -4 605 -32 575 -32 c 0
 559 -32 543 -24 534 -5 c 0
 464 139 449 265 449 386 c 0
 449 439 452 491 454 543 c 1
 419 534 374 527 327 527 c 0
 242 527 149 547 94 610 c 0
 91 613 90 619 90 624 c 0
 90 650 121 696 145 696 c 0
 149 696 153 695 156 692 c 0
 206 651 263 637 317 637 c 0
EndSplineSet
Colour: ffda6b
EndChar

StartChar: _.num.7
Encoding: 65621 -1 85
GlifName: _.num.7
Width: 710
VWidth: 1331
GlyphClass: 2
Flags: HMW
LayerCount: 2
Fore
SplineSet
549 689 m 0
 579 689 620 658 620 630 c 0
 620 622 618 614 613 605 c 0
 532 471 402 117 400 -0 c 0
 400 -22 377 -33 354 -33 c 0
 331 -33 309 -22 309 -0 c 0
 308 117 177 471 97 605 c 0
 92 613 90 621 90 628 c 0
 90 648 109 662 128 673 c 0
 141 681 154 687 165 687 c 0
 175 687 184 682 192 668 c 0
 263 540 321 361 354 237 c 1
 387 361 446 540 517 668 c 0
 525 683 537 689 549 689 c 0
EndSplineSet
Colour: ffda6b
EndChar

StartChar: _.num.8
Encoding: 65622 -1 86
GlifName: _.num.8
Width: 710
VWidth: 1331
GlyphClass: 2
Flags: HMW
LayerCount: 2
Fore
SplineSet
620 27 m 0
 620 -1 580 -32 549 -32 c 0
 537 -32 526 -26 517 -11 c 0
 446 117 387 295 354 418 c 1
 321 295 263 117 192 -11 c 0
 184 -25 175 -30 165 -30 c 0
 154 -30 141 -24 128 -16 c 0
 109 -5 90 9 90 29 c 0
 90 36 92 44 97 52 c 0
 177 185 308 540 309 657 c 0
 309 679 331 690 354 690 c 0
 377 690 400 679 400 657 c 0
 402 540 532 185 613 52 c 0
 618 43 620 35 620 27 c 0
EndSplineSet
Colour: ffda6b
EndChar

StartChar: _.num.9
Encoding: 65623 -1 87
GlifName: _.num.9
Width: 657
VWidth: 1331
GlyphClass: 2
Flags: HMW
LayerCount: 2
Fore
SplineSet
273 699 m 0
 382 699 444 625 458 532 c 1
 458 525 l 1
 460 510 462 496 462 480 c 0
 462 476 462 473 462 469 c 0
 466 350 478 218 560 58 c 0
 565 48 567 39 567 30 c 0
 567 -4 535 -32 505 -32 c 0
 489 -32 475 -24 466 -5 c 0
 417 95 394 189 382 279 c 1
 266 279 l 1
 131 280 90 377 90 476 c 0
 90 624 182 699 273 699 c 0
187 465 m 0
 187 420 200 382 269 381 c 1
 373 381 l 1
 372 418 370 455 369 491 c 0
 362 564 313 601 275 601 c 0
 242 601 189 564 187 480 c 0
 187 475 187 470 187 465 c 0
EndSplineSet
Colour: ffda6b
EndChar

StartChar: _.sing.backslash
Encoding: 65624 -1 88
GlifName: _.sing.backslash
Width: 434
VWidth: 1197
GlyphClass: 2
Flags: HMW
LayerCount: 2
Fore
SplineSet
64 635 m 0
 64 664 91 683 118 683 c 0
 137 683 155 673 163 652 c 0
 239 441 289 307 365 96 c 0
 368 87 370 78 370 70 c 0
 370 39 347 20 322 20 c 0
 302 20 281 32 270 61 c 0
 192 272 143 407 67 618 c 0
 65 624 64 630 64 635 c 0
EndSplineSet
Colour: ffda6b
EndChar

StartChar: _.sing.slash
Encoding: 65625 -1 89
GlifName: _.sing.slash
Width: 434
VWidth: 1197
GlyphClass: 2
Flags: HMW
LayerCount: 2
Fore
SplineSet
64 70 m 0
 64 78 66 87 69 96 c 0
 145 307 195 441 271 652 c 0
 279 673 296 683 315 683 c 0
 342 683 370 664 370 635 c 0
 370 630 369 624 367 618 c 0
 291 407 242 272 164 61 c 0
 153 32 132 20 112 20 c 0
 87 20 64 39 64 70 c 0
EndSplineSet
Colour: ffda6b
EndChar

StartChar: _.sing.tajob
Encoding: 65626 -1 90
GlifName: _.sing.tajob
Width: 288
VWidth: 1197
GlyphClass: 2
Flags: HMW
LayerCount: 2
Fore
SplineSet
64 81 m 0
 64 124 100 161 144 161 c 0
 188 161 224 124 224 81 c 0
 224 37 188 1 144 1 c 0
 100 1 64 37 64 81 c 0
93 455 m 0
 93 460 94 465 94 470 c 2
 94 742 l 2
 94 772 118 786 143 786 c 0
 168 786 192 772 193 742 c 2
 193 469 l 1
 192 316 158 259 135 258 c 0
 110 258 93 310 93 455 c 0
EndSplineSet
Colour: ffda6b
EndChar

StartChar: _.sing.soal
Encoding: 65627 -1 91
GlifName: _.sing.soal
Width: 479
VWidth: 1304
GlyphClass: 2
Flags: HMW
LayerCount: 2
Fore
SplineSet
64 608 m 0
 64 689 136 761 243 761 c 0
 300 761 357 737 406 682 c 0
 412 675 415 669 415 663 c 0
 415 652 406 643 399 634 c 0
 390 619 372 596 356 596 c 0
 351 596 346 598 342 604 c 0
 326 626 283 658 247 658 c 0
 246 658 246 658 245 658 c 0
 194 658 166 637 166 608 c 0
 166 579 194 544 255 517 c 0
 309 493 338 447 338 394 c 0
 338 331 296 258 205 200 c 0
 201 198 198 197 194 197 c 0
 170 197 145 236 145 259 c 0
 145 267 148 274 155 276 c 0
 198 291 241 336 241 377 c 0
 241 398 230 418 202 432 c 0
 105 479 64 547 64 608 c 0
160 80 m 0
 160 124 196 160 240 160 c 0
 284 160 320 124 320 80 c 0
 320 36 284 0 240 -0 c 0
 196 0 160 36 160 80 c 0
EndSplineSet
Colour: ffda6b
EndChar

StartChar: _.sing.beezafeh
Encoding: 65628 -1 92
GlifName: _.sing.beezafeh
Width: 526
VWidth: 1352
GlyphClass: 2
Flags: HMW
LayerCount: 2
Fore
SplineSet
64 250 m 0
 64 275 84 300 123 300 c 2
 212 300 l 1
 212 401 l 1
 213 433 238 449 263 449 c 0
 289 449 314 432 314 401 c 2
 314 300 l 1
 415 300 l 2
 446 300 462 275 462 249 c 0
 462 224 447 199 415 198 c 1
 314 198 l 1
 314 109 l 2
 314 70 289 50 264 50 c 0
 239 50 213 70 212 109 c 1
 212 198 l 1
 123 198 l 1
 84 199 64 225 64 250 c 0
EndSplineSet
Colour: ffda6b
EndChar

StartChar: _.sing.menha
Encoding: 65629 -1 93
GlifName: _.sing.menha
Width: 526
VWidth: 0
GlyphClass: 2
Flags: HMW
LayerCount: 2
Fore
SplineSet
64 250 m 0
 64 275 84 300 123 300 c 2
 415 300 l 2
 446 300 462 275 462 249 c 0
 462 224 447 199 415 198 c 1
 123 198 l 1
 84 199 64 225 64 250 c 0
EndSplineSet
Colour: ffda6b
EndChar

StartChar: _.sing.khateh_tire
Encoding: 65630 -1 94
GlifName: _.sing.khateh_tire
Width: 511
VWidth: 0
GlyphClass: 2
Flags: HMW
LayerCount: 2
Fore
SplineSet
64 241 m 0
 64 257 74 273 97 282 c 2
 210 322 l 1
 167 439 l 2
 165 443 165 448 165 452 c 0
 165 474 187 491 209 491 c 0
 223 491 237 483 244 466 c 2
 285 351 l 1
 395 390 l 2
 399 392 404 392 408 392 c 0
 431 392 447 370 447 349 c 0
 447 335 440 322 423 315 c 2
 312 274 l 1
 352 167 l 2
 354 160 355 154 355 148 c 0
 355 123 337 107 317 107 c 0
 301 107 285 117 277 140 c 2
 237 247 l 1
 124 205 l 2
 117 203 111 202 105 202 c 0
 80 202 64 221 64 241 c 0
EndSplineSet
Colour: ffda6b
EndChar

StartChar: _.sing.virgul
Encoding: 65631 -1 95
GlifName: _.sing.virgul
Width: 299
VWidth: 1197
GlyphClass: 2
Flags: HMW
LayerCount: 2
Fore
SplineSet
153 1 m 0
 96 1 64 56 64 113 c 0
 64 182 108 261 202 308 c 0
 205 309 208 310 211 310 c 0
 226 310 235 291 235 274 c 0
 235 263 231 251 221 246 c 0
 178 224 156 198 156 179 c 0
 156 169 162 160 175 157 c 0
 208 148 233 117 233 81 c 0
 233 37 197 1 153 1 c 0
EndSplineSet
Colour: ffda6b
EndChar

StartChar: _.sing.dot_virgul
Encoding: 65632 -1 96
GlifName: _.sing.dot_virgul
Width: 299
VWidth: 1304
GlyphClass: 2
Flags: HMW
LayerCount: 2
Fore
SplineSet
153 300 m 0
 96 300 64 357 64 413 c 0
 64 482 108 561 202 607 c 0
 205 609 208 609 211 609 c 0
 225 609 235 590 235 573 c 0
 235 561 231 550 221 545 c 0
 178 523 156 497 156 479 c 0
 156 469 162 461 175 458 c 0
 208 448 233 417 233 380 c 0
 233 336 197 300 153 300 c 0
73 81 m 0
 73 124 109 161 153 161 c 0
 197 161 233 124 233 81 c 0
 233 37 197 1 153 1 c 0
 109 1 73 37 73 81 c 0
EndSplineSet
Colour: ffda6b
EndChar

StartChar: _.sing.2noqte
Encoding: 65633 -1 97
GlifName: _.sing.2noqte
Width: 288
VWidth: 1352
GlyphClass: 2
Flags: HMW
LayerCount: 2
Fore
SplineSet
64 81 m 0
 64 124 100 161 144 161 c 0
 188 161 224 124 224 81 c 0
 224 37 188 1 144 1 c 0
 100 1 64 37 64 81 c 0
64 351 m 0
 64 395 100 431 144 431 c 0
 188 431 224 395 224 351 c 0
 224 307 188 271 144 271 c 0
 100 271 64 307 64 351 c 0
EndSplineSet
Colour: ffda6b
EndChar

StartChar: _.sing.noqte
Encoding: 65634 -1 98
GlifName: _.sing.noqte
Width: 288
VWidth: 1352
GlyphClass: 2
Flags: HMW
LayerCount: 2
Fore
SplineSet
64 80 m 0
 64 124 100 160 144 160 c 0
 188 160 224 124 224 80 c 0
 224 36 188 0 144 -0 c 0
 100 0 64 36 64 80 c 0
EndSplineSet
Colour: ffda6b
EndChar

StartChar: _.sing.gheiomeh.right
Encoding: 65635 -1 99
GlifName: _.sing.gheiomeh.right
Width: 456
VWidth: 1352
GlyphClass: 2
Flags: HMW
LayerCount: 2
Fore
SplineSet
64 236 m 0
 64 321 95 403 158 487 c 0
 165 497 182 505 195 505 c 0
 205 505 213 501 213 490 c 0
 213 484 210 475 203 463 c 0
 162 394 140 329 140 261 c 0
 140 194 162 124 207 42 c 0
 208 40 209 37 209 34 c 0
 209 16 178 -8 153 -8 c 0
 142 -8 133 -4 127 8 c 0
 86 90 64 165 64 236 c 0
244 238 m 0
 244 323 274 403 337 487 c 0
 344 497 361 505 374 505 c 0
 384 505 392 501 392 490 c 0
 392 484 390 475 383 463 c 0
 342 394 321 329 321 262 c 0
 321 195 342 124 388 42 c 0
 389 40 389 37 389 35 c 0
 389 17 358 -8 333 -8 c 0
 322 -8 313 -4 308 8 c 0
 266 90 244 166 244 238 c 0
EndSplineSet
Colour: ffda6b
EndChar

StartChar: _.sing.gheiomeh.left
Encoding: 65636 -1 100
GlifName: _.sing.gheiomeh.left
Width: 457
VWidth: 1352
GlyphClass: 2
Flags: HMW
LayerCount: 2
Fore
SplineSet
64 7 m 0
 64 13 67 22 74 34 c 0
 115 103 136 167 136 235 c 0
 136 302 115 373 70 455 c 0
 69 457 68 459 68 462 c 0
 68 480 99 505 124 505 c 0
 135 505 144 501 150 489 c 0
 191 407 213 332 213 261 c 0
 213 176 182 94 119 10 c 0
 112 0 95 -8 82 -8 c 0
 72 -8 64 -4 64 7 c 0
244 7 m 0
 244 13 246 22 253 34 c 0
 294 103 316 168 316 236 c 0
 316 303 295 373 250 455 c 0
 249 457 248 460 248 462 c 0
 248 480 278 505 303 505 c 0
 314 505 324 501 330 489 c 0
 372 407 393 332 393 260 c 0
 393 175 363 94 299 10 c 0
 292 0 275 -8 262 -8 c 0
 252 -8 244 -4 244 7 c 0
EndSplineSet
Colour: ffda6b
EndChar

StartChar: _.sing.parantez.right
Encoding: 65637 -1 101
GlifName: _.sing.parantez.right
Width: 352
VWidth: 1352
GlyphClass: 2
Flags: HMW
LayerCount: 2
Fore
SplineSet
64 349 m 0
 64 492 111 634 206 779 c 0
 214 792 231 799 247 799 c 0
 268 799 288 788 288 768 c 0
 288 761 286 754 281 745 c 0
 200 613 160 481 160 349 c 0
 160 216 200 85 281 -47 c 0
 286 -56 288 -63 288 -70 c 0
 288 -90 268 -101 247 -101 c 0
 231 -101 214 -94 206 -81 c 0
 111 64 64 206 64 349 c 0
EndSplineSet
Colour: ffda6b
EndChar

StartChar: _.sing.parantez.left
Encoding: 65638 -1 102
GlifName: _.sing.parantez.left
Width: 352
VWidth: 1352
GlyphClass: 2
Flags: HMW
LayerCount: 2
Fore
SplineSet
64 -70 m 0
 64 -63 67 -56 72 -47 c 0
 153 85 191 216 191 349 c 0
 191 481 153 613 72 745 c 0
 67 754 64 761 64 768 c 0
 64 788 84 799 105 799 c 0
 121 799 138 792 147 779 c 0
 241 634 287 492 288 349 c 0
 287 206 241 64 147 -81 c 0
 138 -94 121 -101 105 -101 c 0
 84 -101 64 -90 64 -70 c 0
EndSplineSet
Colour: ffda6b
EndChar

StartChar: _.sing.parantez_tazeeni.right
Encoding: 65639 -1 103
GlifName: _.sing.parantez_tazeeni.right
Width: 667
VWidth: 0
GlyphClass: 2
Flags: HMW
LayerCount: 2
Fore
SplineSet
64 -102 m 1
 150 -20 212 70 250 168 c 1
 164 168 l 1
 164 277 l 1
 89 352 l 1
 164 426 l 1
 164 534 l 1
 250 534 l 1
 209 637 141 730 64 805 c 1
 159 805 l 1
 314 752 421 662 480 534 c 1
 529 534 l 1
 529 426 l 1
 603 352 l 1
 529 277 l 1
 529 168 l 1
 480 168 l 1
 421 40 314 -49 159 -102 c 1
 64 -102 l 1
142 352 m 1
 201 292 l 1
 201 204 l 1
 287 204 l 1
 347 146 l 1
 406 204 l 1
 492 204 l 1
 492 292 l 1
 552 352 l 1
 492 411 l 1
 492 497 l 1
 406 497 l 1
 347 557 l 1
 287 497 l 1
 201 497 l 1
 201 411 l 1
 142 352 l 1
150 -67 m 1
 288 -19 387 58 442 168 c 1
 421 168 l 1
 347 95 l 1
 286 154 l 1
 255 72 210 -3 150 -67 c 1
153 769 m 1
 213 701 256 628 286 548 c 1
 347 608 l 1
 421 534 l 1
 442 534 l 1
 385 644 288 722 153 769 c 1
347 230 m 0
 278 230 225 284 225 352 c 0
 225 422 277 474 346 474 c 0
 414 474 468 419 468 351 c 0
 468 283 416 230 347 230 c 0
263 352 m 1
 347 268 l 1
 431 352 l 1
 347 437 l 1
 263 352 l 1
EndSplineSet
Colour: ffda6b
EndChar

StartChar: _.sing.parantez_tazeeni.left
Encoding: 65640 -1 104
GlifName: _.sing.parantez_tazeeni.left
Width: 667
VWidth: 0
GlyphClass: 2
Flags: HMW
LayerCount: 2
Fore
SplineSet
236 352 m 1
 320 268 l 1
 404 352 l 1
 320 437 l 1
 236 352 l 1
225 534 m 1
 245 534 l 1
 320 608 l 1
 382 548 l 1
 412 628 455 701 517 769 c 1
 380 722 282 644 225 534 c 1
225 168 m 1
 279 58 377 -19 515 -67 c 1
 455 -3 412 72 382 154 c 1
 320 95 l 1
 245 168 l 1
 225 168 l 1
319 230 m 0
 251 230 199 283 199 351 c 0
 199 419 253 474 321 474 c 0
 390 474 442 422 442 352 c 0
 442 283 389 230 319 230 c 0
114 352 m 1
 175 292 l 1
 175 204 l 1
 261 204 l 1
 320 146 l 1
 380 204 l 1
 467 204 l 1
 467 292 l 1
 526 352 l 1
 467 411 l 1
 467 497 l 1
 380 497 l 1
 320 557 l 1
 261 497 l 1
 175 497 l 1
 175 411 l 1
 114 352 l 1
64 352 m 1
 138 426 l 1
 138 534 l 1
 187 534 l 1
 246 662 353 752 508 805 c 1
 603 805 l 1
 526 730 458 637 417 534 c 1
 503 534 l 1
 503 426 l 1
 579 352 l 1
 503 277 l 1
 503 168 l 1
 417 168 l 1
 454 70 517 -20 603 -102 c 1
 508 -102 l 1
 353 -49 246 40 187 168 c 1
 138 168 l 1
 138 277 l 1
 64 352 l 1
EndSplineSet
Colour: ffda6b
EndChar

StartChar: _.sing.koroshe.right
Encoding: 65641 -1 105
GlifName: _.sing.koroshe.right
Width: 389
VWidth: 1197
GlyphClass: 2
Flags: HMW
LayerCount: 2
Fore
SplineSet
64 -22 m 2
 64 623 l 2
 64 708 75 800 207 800 c 2
 291 800 l 2
 317 800 325 791 325 770 c 2
 325 741 l 2
 325 720 319 709 293 709 c 2
 224 709 l 2
 167 709 155 688 155 620 c 2
 155 439 l 2
 155 187 154 413 154 161 c 2
 154 -21 l 2
 154 -89 167 -109 224 -109 c 2
 293 -109 l 2
 319 -109 325 -120 325 -142 c 2
 325 -170 l 2
 325 -192 317 -201 291 -201 c 2
 207 -201 l 2
 84 -201 64 -107 64 -22 c 2
EndSplineSet
Colour: ffda6b
EndChar

StartChar: _.sing.koroshe.left
Encoding: 65642 -1 106
GlifName: _.sing.koroshe.left
Width: 389
VWidth: 1197
GlyphClass: 2
Flags: HMW
LayerCount: 2
Fore
SplineSet
64 -142 m 2
 64 -120 71 -110 97 -110 c 2
 165 -110 l 2
 223 -110 234 -89 235 -21 c 1
 235 161 l 2
 236 287 236 294 236 300 c 0
 236 306 236 313 235 439 c 2
 235 620 l 1
 234 688 223 709 165 709 c 2
 97 709 l 2
 71 709 65 720 65 741 c 2
 65 770 l 2
 65 791 72 800 98 800 c 2
 182 800 l 2
 314 800 325 708 325 623 c 2
 325 -22 l 2
 325 -107 305 -201 182 -201 c 2
 98 -201 l 2
 72 -201 64 -192 64 -170 c 2
 64 -142 l 2
EndSplineSet
Colour: ffda6b
EndChar

StartChar: _.sing.akolad.right
Encoding: 65643 -1 107
GlifName: _.sing.akolad.right
Width: 548
VWidth: 1197
GlyphClass: 2
Flags: HMW
LayerCount: 2
Fore
SplineSet
64 283 m 2
 64 316 l 2
 64 339 71 348 96 348 c 0
 158 348 224 349 224 439 c 2
 224 623 l 2
 224 708 235 800 367 800 c 2
 451 800 l 2
 476 800 485 791 484 770 c 1
 484 741 l 2
 484 720 478 709 452 709 c 2
 384 709 l 2
 326 709 315 688 314 620 c 1
 314 439 l 2
 314 354 260 300 178 300 c 1
 178 299 l 2
 179 299 180 299 181 299 c 0
 262 299 314 244 314 161 c 2
 314 -21 l 1
 315 -89 326 -109 384 -109 c 2
 452 -109 l 2
 478 -109 484 -120 484 -142 c 2
 484 -170 l 1
 485 -192 476 -201 451 -201 c 2
 367 -201 l 2
 244 -201 224 -107 224 -22 c 2
 224 161 l 2
 224 251 158 251 96 251 c 0
 71 251 64 261 64 283 c 2
EndSplineSet
Colour: ffda6b
EndChar

StartChar: _.sing.akolad.left
Encoding: 65644 -1 108
GlifName: _.sing.akolad.left
Width: 548
VWidth: 1197
GlyphClass: 2
Flags: HMW
LayerCount: 2
Fore
SplineSet
64 -142 m 2
 64 -120 71 -110 97 -110 c 2
 165 -110 l 2
 223 -110 234 -89 235 -21 c 1
 235 161 l 2
 235 244 287 299 368 299 c 0
 369 299 370 299 371 299 c 2
 371 300 l 1
 289 300 235 354 235 439 c 2
 235 620 l 1
 234 688 223 709 165 709 c 2
 97 709 l 2
 71 709 65 720 65 741 c 2
 65 770 l 2
 65 791 72 800 98 800 c 2
 182 800 l 2
 314 800 325 708 325 623 c 2
 325 439 l 2
 325 349 391 348 453 348 c 0
 478 348 484 339 484 316 c 2
 484 283 l 2
 484 261 478 251 453 251 c 0
 391 251 325 251 325 161 c 2
 325 -22 l 2
 325 -107 305 -201 182 -201 c 2
 98 -201 l 2
 72 -201 64 -192 64 -170 c 2
 64 -142 l 2
EndSplineSet
Colour: ffda6b
EndChar

StartChar: _.mark.maad
Encoding: 65645 -1 109
GlifName: _.mark.maad
Width: 0
VWidth: 1352
GlyphClass: 2
Flags: HMW
LayerCount: 2
Fore
SplineSet
0 12 m 0
 0 56 5 91 15 116 c 0
 23 139 28 145 38 145 c 0
 44 145 51 142 63 140 c 0
 99 134 131 130 161 130 c 0
 198 130 239 139 283 159 c 0
 285 160 288 160 290 160 c 0
 304 160 318 142 318 124 c 0
 318 115 314 106 305 100 c 1
 258 77 210 65 158 65 c 0
 132 65 106 68 80 74 c 1
 65 65 59 44 59 12 c 0
 58 0 44 -5 30 -5 c 0
 15 -5 0 1 0 12 c 0
EndSplineSet
Colour: ffda6b
EndChar

StartChar: _.mark.fatheh
Encoding: 65646 -1 110
GlifName: _.mark.fatheh
Width: 0
VWidth: 2310
GlyphClass: 2
Flags: HMW
LayerCount: 2
Fore
SplineSet
0 25 m 0
 0 40 6 57 16 60 c 2
 242 130 l 2
 243 130 244 131 245 131 c 0
 253 131 257 118 257 105 c 0
 257 90 252 73 242 70 c 2
 17 -1 l 2
 16 -1 15 -2 14 -2 c 0
 5 -2 0 11 0 25 c 0
EndSplineSet
Colour: ffda6b
EndChar

StartChar: _.mark.kasreh
Encoding: 65647 -1 111
GlifName: _.mark.kasreh
Width: 0
VWidth: 2384
GlyphClass: 2
Flags: HMW
LayerCount: 2
Fore
SplineSet
0 -105 m 0
 0 -90 6 -73 16 -69 c 2
 242 -0 l 2
 243 0 244 0 245 0 c 0
 253 0 257 -12 257 -25 c 0
 257 -40 252 -58 242 -61 c 2
 17 -131 l 2
 16 -131 14 -131 13 -131 c 0
 4 -131 0 -119 0 -105 c 0
EndSplineSet
Colour: ffda6b
EndChar

StartChar: _.mark.zameh
Encoding: 65648 -1 112
GlifName: _.mark.zameh
Width: 0
VWidth: 2277
GlyphClass: 2
Flags: HMW
LayerCount: 2
Fore
SplineSet
216 139 m 1
 236 133 251 134 251 114 c 0
 251 98 241 77 230 77 c 0
 229 77 229 77 228 77 c 0
 213 82 197 87 186 91 c 1
 154 53 104 18 38 -0 c 0
 35 -1 33 -1 30 -1 c 0
 11 -1 0 17 0 31 c 0
 0 39 3 46 11 48 c 0
 60 58 102 82 132 112 c 1
 128 112 l 1
 82 128 63 163 63 198 c 0
 63 247 99 297 149 297 c 0
 203 297 232 251 232 206 c 0
 232 185 227 162 216 139 c 1
180 202 m 0
 180 219 171 242 148 242 c 0
 129 242 112 221 112 200 c 0
 112 171 133 167 166 156 c 1
 175 172 180 188 180 202 c 0
EndSplineSet
Colour: ffda6b
EndChar

StartChar: _.mark.tanvin_fatheh
Encoding: 65649 -1 113
GlifName: _.mark.tanvin_fatheh
Width: 0
VWidth: 2280
GlyphClass: 2
Flags: HMW
LayerCount: 2
Fore
SplineSet
0 154 m 0
 0 169 6 187 16 191 c 2
 242 260 l 2
 243 260 244 260 245 260 c 0
 253 260 257 248 257 234 c 0
 257 219 252 202 242 199 c 2
 16 129 l 2
 15 129 13 128 12 128 c 0
 4 128 0 140 0 154 c 0
10 25 m 0
 10 40 16 57 26 60 c 2
 252 130 l 2
 253 130 254 131 255 131 c 0
 263 131 267 119 267 105 c 0
 267 90 262 73 252 70 c 2
 27 -1 l 2
 26 -1 25 -2 24 -2 c 0
 15 -2 10 11 10 25 c 0
EndSplineSet
Colour: ffda6b
EndChar

StartChar: _.mark.tanvin_kasreh
Encoding: 65650 -1 114
GlifName: _.mark.tanvin_kasreh
Width: 0
VWidth: 2413
GlyphClass: 2
Flags: HMW
LayerCount: 2
Fore
SplineSet
0 -106 m 0
 0 -91 6 -75 16 -72 c 2
 242 -1 l 2
 243 -1 244 -1 245 -1 c 0
 253 -1 257 -13 257 -26 c 0
 257 -41 252 -59 242 -63 c 2
 17 -133 l 2
 16 -133 15 -134 14 -134 c 0
 5 -134 0 -120 0 -106 c 0
10 -237 m 0
 10 -222 15 -205 25 -202 c 2
 252 -132 l 2
 253 -132 254 -131 255 -131 c 0
 264 -131 268 -143 268 -157 c 0
 268 -172 262 -189 252 -192 c 2
 27 -262 l 2
 26 -262 24 -263 23 -263 c 0
 14 -263 10 -251 10 -237 c 0
EndSplineSet
Colour: ffda6b
EndChar

StartChar: _.mark.tanvin_zameh
Encoding: 65651 -1 115
GlifName: _.mark.tanvin_zameh
Width: 0
VWidth: 2273
GlyphClass: 2
Flags: HMW
LayerCount: 2
Fore
SplineSet
30 83 m 0
 26 83 22 82 18 82 c 0
 7 82 0 94 0 107 c 0
 0 125 10 133 30 133 c 0
 70 133 90 106 93 77 c 1
 110 87 126 99 140 111 c 1
 135 111 l 1
 89 127 71 162 71 197 c 0
 71 246 107 296 157 296 c 0
 211 296 238 252 238 207 c 0
 238 186 232 162 221 139 c 1
 242 133 258 134 258 114 c 0
 258 98 248 77 237 77 c 0
 236 77 236 77 235 77 c 0
 219 82 202 87 191 92 c 1
 159 55 110 21 45 -0 c 0
 42 -1 39 -2 36 -2 c 0
 18 -2 7 16 7 30 c 0
 7 51 36 53 52 58 c 1
 52 72 45 83 30 83 c 0
119 200 m 0
 119 169 142 168 177 155 c 1
 185 169 190 184 190 197 c 0
 190 215 181 231 161 241 c 0
 159 242 157 242 155 242 c 0
 136 242 119 221 119 200 c 0
EndSplineSet
Colour: ffda6b
EndChar

StartChar: _.mark.tashdid
Encoding: 65652 -1 116
GlifName: _.mark.tashdid
Width: 0
VWidth: 1833
GlyphClass: 2
Flags: HMW
LayerCount: 2
Fore
SplineSet
0 98 m 2
 0 129 l 2
 0 142 13 148 25 148 c 0
 37 148 48 143 48 133 c 2
 48 100 l 2
 48 74 63 59 80 59 c 0
 100 59 123 80 123 125 c 2
 123 157 l 2
 123 172 138 181 151 181 c 0
 161 181 170 176 170 165 c 2
 170 125 l 2
 170 96 188 83 206 83 c 0
 224 83 243 97 243 123 c 0
 243 125 238 149 238 193 c 0
 238 208 254 218 268 218 c 0
 278 218 287 212 288 200 c 2
 292 128 l 2
 292 126 292 123 292 121 c 0
 292 61 246 22 203 22 c 0
 184 22 164 30 151 48 c 1
 136 15 108 -1 80 -1 c 0
 40 -1 0 32 0 98 c 2
EndSplineSet
Colour: ffda6b
EndChar

StartChar: _.mark.hamze
Encoding: 65653 -1 117
GlifName: _.mark.hamze
Width: 0
VWidth: 1841
GlyphClass: 2
Flags: HMW
LayerCount: 2
Fore
SplineSet
82 153 m 0
 82 139 97 111 112 111 c 0
 117 111 127 113 139 117 c 0
 153 122 180 128 219 134 c 0
 220 134 221 134 222 134 c 0
 234 134 242 115 242 97 c 0
 242 84 238 72 229 69 c 0
 181 59 156 54 152 53 c 0
 118 42 78 23 35 -4 c 0
 32 -6 29 -7 26 -7 c 0
 11 -7 0 19 0 37 c 0
 0 44 2 51 6 54 c 0
 33 70 45 78 49 80 c 1
 29 103 21 127 21 151 c 0
 21 213 80 268 140 268 c 0
 142 268 l 0
 164 268 189 259 212 242 c 0
 214 241 214 239 214 236 c 0
 214 222 196 190 182 190 c 0
 180 190 178 191 177 192 c 0
 164 200 150 202 136 202 c 0
 113 202 82 181 82 153 c 0
EndSplineSet
Colour: ffda6b
EndChar

StartChar: _.mark.sakon
Encoding: 65654 -1 118
GlifName: _.mark.sakon
Width: 0
VWidth: 2099
GlyphClass: 2
Flags: HMW
LayerCount: 2
Fore
SplineSet
0 107 m 0
 0 225 80 273 118 273 c 0
 154 273 240 216 240 114 c 0
 240 38 181 1 120 1 c 0
 60 1 0 37 0 107 c 0
118 70 m 0
 152 70 180 83 180 116 c 0
 180 156 144 202 116 202 c 0
 87 202 56 153 56 114 c 0
 56 81 83 70 118 70 c 0
EndSplineSet
Colour: ffda6b
EndChar

StartChar: _.mark.alef
Encoding: 65655 -1 119
GlifName: _.mark.alef
Width: 0
VWidth: 2091
GlyphClass: 2
Flags: HMW
LayerCount: 2
Fore
SplineSet
0 198 m 0
 0 220 26 247 47 247 c 0
 54 247 60 243 64 237 c 0
 99 184 109 123 109 70 c 0
 109 51 108 34 106 18 c 0
 106 6 91 0 79 -0 c 0
 72 0 54 6 54 18 c 0
 54 20 54 21 54 23 c 0
 54 83 34 142 4 186 c 0
 2 190 0 194 0 198 c 0
EndSplineSet
Colour: ffda6b
EndChar

StartChar: _.sing.momaiez
Encoding: 65656 -1 120
GlifName: _.sing.momaiez
Width: 427
VWidth: 1352
GlyphClass: 2
Flags: HMW
LayerCount: 2
Fore
SplineSet
64 -128 m 0
 64 -119 67 -111 73 -104 c 1
 288 336 l 1
 292 349 303 354 314 354 c 0
 336 354 363 335 363 310 c 0
 363 305 362 300 360 295 c 2
 128 -171 l 1
 122 -178 116 -181 109 -181 c 0
 87 -181 64 -153 64 -128 c 0
EndSplineSet
Colour: ffda6b
EndChar

StartChar: _.sing.hezare
Encoding: 65657 -1 121
GlifName: _.sing.hezare
Width: 230
VWidth: 1197
GlyphClass: 2
Flags: HMW
LayerCount: 2
Fore
SplineSet
64 801 m 0
 64 832 90 849 116 849 c 0
 141 849 166 833 166 801 c 0
 166 757 144 714 144 670 c 0
 144 630 129 609 114 609 c 0
 99 609 84 630 84 670 c 0
 84 714 64 757 64 801 c 0
EndSplineSet
Colour: ffda6b
EndChar

StartChar: _.sing.darsad
Encoding: 65658 -1 122
GlifName: _.sing.darsad
Width: 698
VWidth: 1197
GlyphClass: 2
Flags: HMW
LayerCount: 2
Fore
SplineSet
64 550 m 0
 64 594 100 630 144 630 c 0
 188 630 224 594 224 550 c 0
 224 506 188 470 144 470 c 0
 100 470 64 506 64 550 c 0
162 91 m 0
 162 102 165 113 172 125 c 2
 468 638 l 2
 477 654 493 661 508 661 c 0
 535 661 563 639 563 611 c 0
 563 604 560 595 556 587 c 2
 260 74 l 2
 246 51 227 42 210 42 c 0
 185 42 162 62 162 91 c 0
474 191 m 0
 474 235 510 271 554 271 c 0
 598 271 634 235 634 191 c 0
 634 147 598 111 554 111 c 0
 510 111 474 147 474 191 c 0
EndSplineSet
Colour: ffda6b
EndChar

StartChar: _.sing.mosavi
Encoding: 65659 -1 123
GlifName: _.sing.mosavi
Width: 526
VWidth: 1197
GlyphClass: 2
Flags: HMW
LayerCount: 2
Fore
SplineSet
64 150 m 0
 64 175 84 200 123 200 c 2
 415 200 l 2
 446 200 462 175 462 149 c 0
 462 124 447 99 415 98 c 2
 123 98 l 2
 84 99 64 125 64 150 c 0
64 350 m 0
 64 375 84 400 123 400 c 2
 415 400 l 2
 446 400 462 374 462 349 c 0
 462 324 447 300 415 299 c 2
 123 299 l 2
 84 300 64 325 64 350 c 0
EndSplineSet
Colour: ffda6b
EndChar

StartChar: _.sing.star5par
Encoding: 65660 -1 124
GlifName: _.sing.5par
Width: 635
VWidth: 1197
GlyphClass: 2
Flags: HMW
LayerCount: 2
Fore
SplineSet
201 2 m 0
 165 2 137 26 137 61 c 0
 137 76 141 90 148 101 c 2
 215 194 l 1
 106 229 l 2
 78 238 64 257 64 289 c 0
 64 320 89 351 118 351 c 0
 132 351 140 349 146 348 c 2
 255 312 l 1
 255 428 l 2
 255 467 286 490 318 490 c 0
 352 490 380 462 380 428 c 2
 380 312 l 1
 489 348 l 2
 495 349 505 351 517 351 c 0
 546 351 571 320 571 289 c 0
 571 257 556 238 528 229 c 2
 417 194 l 1
 485 101 l 2
 494 89 498 75 498 63 c 0
 498 30 470 2 433 2 c 0
 413 2 399 11 385 28 c 2
 318 122 l 1
 249 28 l 2
 237 11 221 2 201 2 c 0
EndSplineSet
Colour: ffda6b
EndChar

StartChar: _.beh_k.init
Encoding: 65661 -1 125
GlifName: _.beh_k.init
Width: 385
VWidth: 1197
GlyphClass: 2
UnlinkRmOvrlpSave: 1
Flags: HMW
LayerCount: 2
Fore
SplineSet
285 175 m 0
 285 33 172 0 0 -0 c 0
 -26 0 -50 24 -50 50 c 0
 -50 76 -26 100 0 100 c 0
 70 100 134 101 200 127 c 0
 200 128 200 130 200 132 c 0
 200 159 181 268 149 365 c 1
 242 407 l 1
 269 315 285 232 285 175 c 0
EndSplineSet
Colour: ffda6b
EndChar

StartChar: _.beh_k.medi
Encoding: 65662 -1 126
GlifName: _.beh_k.medi
Width: 389
VWidth: 1304
GlyphClass: 2
UnlinkRmOvrlpSave: 1
Flags: HMW
LayerCount: 2
Fore
SplineSet
-50 50 m 0
 -49 76 -25 100 0 100 c 0
 73 100 130 105 179 125 c 1
 173 145 169 166 165 191 c 2
 152 284 l 1
 238 305 l 1
 252 209 l 2
 264 125 278 100 389 100 c 1
 389 -0 l 1
 307 0 254 16 220 53 c 1
 170 11 82 0 0 -0 c 0
 -25 0 -50 24 -50 50 c 0
EndSplineSet
Colour: ffda6b
EndChar

StartChar: _.sing.3noqte
Encoding: 65663 -1 127
GlifName: _.sing.3noqte
Width: 747
VWidth: 1304
GlyphClass: 2
Flags: HMW
LayerCount: 2
Fore
SplineSet
64 70 m 0
 64 108 95 139 134 139 c 0
 172 139 204 108 204 70 c 0
 204 31 172 0 134 -0 c 0
 95 0 64 31 64 70 c 0
289 75 m 0
 289 116 322 150 363 150 c 0
 405 150 438 116 438 75 c 0
 438 33 405 0 363 -0 c 0
 322 0 289 33 289 75 c 0
523 81 m 0
 523 124 559 161 603 161 c 0
 647 161 683 124 683 81 c 0
 683 37 647 1 603 1 c 0
 559 1 523 37 523 81 c 0
EndSplineSet
Colour: ffda6b
EndChar

StartChar: s.hyphen
Encoding: 8208 8208 138
GlifName: s.khat_tire
Width: 464
VWidth: 0
GlyphClass: 2
Flags: HMW
LayerCount: 2
Fore
SplineSet
34 229 m 1
 34 307 l 1
 430 307 l 1
 430 229 l 1
 34 229 l 1
EndSplineSet
Colour: d7d7d7
EndChar

StartChar: s.zwj
Encoding: 8205 8205 174
GlifName: s.zwj
Width: 0
VWidth: 1331
GlyphClass: 2
Flags: HMW
LayerCount: 2
Fore
SplineSet
25 -327 m 1
 -25 -327 l 1
 -25 579 l 1
 -111 491 l 1
 -141 521 l 1
 -30 631 l 1
 -141 740 l 1
 -111 772 l 1
 0 660 l 1
 111 772 l 1
 141 740 l 1
 30 631 l 1
 141 521 l 1
 111 491 l 1
 25 579 l 1
 25 -327 l 1
EndSplineSet
Colour: d7d7d7
EndChar

StartChar: s.tagsim
Encoding: 247 247 182
GlifName: s.tagsim
Width: 564
VWidth: 1278
GlyphClass: 2
Flags: HMW
LayerCount: 2
Fore
SplineSet
59 352 m 1
 59 429 l 1
 506 429 l 1
 506 352 l 1
 59 352 l 1
234 204 m 1
 234 299 l 1
 330 299 l 1
 330 204 l 1
 234 204 l 1
234 482 m 1
 234 577 l 1
 330 577 l 1
 330 482 l 1
 234 482 l 1
EndSplineSet
Colour: d7d7d7
EndChar

StartChar: s.zwnj
Encoding: 8204 8204 215
GlifName: s.zwnj
Width: 0
VWidth: 1331
GlyphClass: 2
Flags: HMW
LayerCount: 2
Fore
SplineSet
-25 -308 m 1
 -25 710 l 1
 25 710 l 1
 25 -308 l 1
 -25 -308 l 1
EndSplineSet
Colour: d7d7d7
EndChar

StartChar: s.dotted_circle
Encoding: 9676 9676 220
GlifName: s.dotted_circle
Width: 576
VWidth: 1890
GlyphClass: 2
Flags: HMW
LayerCount: 2
Fore
SplineSet
60 181 m 0
 60 196 67 203 82 203 c 0
 97 203 104 196 104 182 c 2
 104 180 l 2
 104 166 97 159 82 159 c 0
 67 159 60 166 60 181 c 0
76 103 m 0
 76 118 83 126 98 126 c 0
 113 126 120 118 120 103 c 0
 120 88 113 80 98 80 c 0
 83 80 76 88 76 103 c 0
76 259 m 0
 76 274 83 282 98 282 c 0
 113 282 120 274 120 259 c 0
 120 244 113 236 99 236 c 0
 84 236 76 244 76 259 c 0
120 34 m 0
 120 49 127 56 142 57 c 0
 157 56 164 49 165 34 c 0
 164 19 157 12 142 12 c 0
 127 12 120 19 120 34 c 0
120 326 m 0
 120 341 127 348 142 349 c 0
 157 348 164 341 165 326 c 0
 164 311 157 304 142 304 c 0
 127 304 120 311 120 326 c 0
187 -8 m 0
 187 7 195 14 210 14 c 0
 225 14 233 7 233 -8 c 0
 233 -23 225 -30 210 -30 c 0
 195 -30 187 -23 187 -8 c 0
187 372 m 0
 187 387 195 394 210 394 c 0
 225 394 233 387 233 372 c 0
 233 357 225 350 210 350 c 0
 195 350 187 357 187 372 c 0
310 -26 m 0
 310 -41 303 -48 288 -48 c 0
 273 -48 266 -41 265 -26 c 0
 266 -11 273 -4 288 -3 c 0
 303 -4 310 -11 310 -26 c 0
288 410 m 0
 303 410 310 403 310 388 c 0
 310 373 303 366 288 365 c 0
 273 366 266 373 265 388 c 0
 266 403 273 410 288 410 c 0
344 -8 m 0
 344 7 352 14 367 14 c 0
 382 14 390 7 390 -8 c 0
 390 -22 382 -30 367 -31 c 0
 352 -30 344 -22 344 -8 c 0
344 372 m 0
 344 387 352 394 367 394 c 0
 382 394 390 387 390 372 c 0
 390 358 382 350 367 349 c 0
 352 350 344 358 344 372 c 0
412 34 m 0
 412 49 419 56 434 57 c 0
 449 56 456 49 456 34 c 0
 456 19 449 12 434 12 c 0
 419 12 412 19 412 34 c 0
412 326 m 0
 412 341 419 348 434 349 c 0
 449 348 456 341 456 326 c 0
 456 311 449 304 434 304 c 0
 419 304 412 311 412 326 c 0
456 103 m 0
 456 118 463 126 478 126 c 0
 492 126 500 118 501 103 c 0
 500 88 492 80 478 80 c 0
 463 80 456 88 456 103 c 0
456 259 m 0
 456 274 463 282 478 282 c 0
 492 282 500 274 501 259 c 0
 500 244 492 236 478 236 c 0
 463 236 456 244 456 259 c 0
472 181 m 0
 472 196 479 203 494 203 c 0
 509 203 516 196 517 182 c 2
 517 180 l 2
 516 166 509 159 494 159 c 0
 479 159 472 166 472 181 c 0
EndSplineSet
Colour: d7d7d7
EndChar

StartChar: s.figure_dash
Encoding: 8210 8210 224
GlifName: s.figure_dash
Width: 600
VWidth: 0
GlyphClass: 2
Flags: HMW
LayerCount: 2
Fore
SplineSet
55 229 m 1
 55 307 l 1
 547 307 l 1
 547 229 l 1
 55 229 l 1
EndSplineSet
Colour: d7d7d7
EndChar

StartChar: s.em_dash
Encoding: 8212 8212 263
GlifName: s.em_dash
Width: 1200
VWidth: 1175
GlyphClass: 2
Flags: HMW
LayerCount: 2
Fore
SplineSet
55 229 m 1
 55 307 l 1
 1147 307 l 1
 1147 229 l 1
 55 229 l 1
EndSplineSet
Colour: d7d7d7
EndChar

StartChar: s.bullet
Encoding: 8226 8226 278
GlifName: s.bullet
Width: 602
VWidth: 1331
GlyphClass: 2
Flags: HMW
LayerCount: 2
Fore
SplineSet
532 432 m 0
 532 369 509 315 464 270 c 0
 419 225 365 202 302 202 c 0
 245 202 194 223 147 266 c 0
 100 309 77 357 77 410 c 0
 77 483 99 542 142 585 c 0
 185 628 236 650 295 650 c 0
 368 650 426 630 468 591 c 0
 510 552 532 499 532 432 c 0
EndSplineSet
Colour: d7d7d7
EndChar

StartChar: s.en_dash
Encoding: 8211 8211 310
GlifName: s.en_dash
Width: 600
VWidth: 1175
GlyphClass: 2
Flags: HMW
LayerCount: 2
Fore
SplineSet
55 229 m 1
 55 307 l 1
 547 307 l 1
 547 229 l 1
 55 229 l 1
EndSplineSet
Colour: d7d7d7
EndChar

StartChar: s.horizontal_bar
Encoding: 8213 8213 316
GlifName: s.horizontal_bar
Width: 2400
VWidth: 1175
GlyphClass: 2
Flags: HMW
LayerCount: 2
Fore
SplineSet
55 229 m 1
 55 307 l 1
 2347 307 l 1
 2347 229 l 1
 55 229 l 1
EndSplineSet
Colour: d7d7d7
EndChar

StartChar: s.lrm
Encoding: 8206 8206 317
GlifName: s.lrm
Width: 0
VWidth: 1331
GlyphClass: 2
Flags: HMW
LayerCount: 2
Fore
SplineSet
-25 -308 m 1
 -25 676 l 1
 196 676 l 1
 106 759 l 1
 138 790 l 1
 280 651 l 1
 138 510 l 1
 106 544 l 1
 196 628 l 1
 22 628 l 1
 22 -308 l 1
 -25 -308 l 1
EndSplineSet
Colour: d7d7d7
EndChar

StartChar: s.rlm
Encoding: 8207 8207 346
GlifName: s.rlm
Width: 0
VWidth: 1331
GlyphClass: 2
Flags: HMW
LayerCount: 2
Fore
SplineSet
22 676 m 1
 22 -308 l 1
 -25 -308 l 1
 -25 628 l 1
 -196 628 l 1
 -108 544 l 1
 -138 510 l 1
 -280 651 l 1
 -138 790 l 1
 -108 759 l 1
 -196 676 l 1
 22 676 l 1
EndSplineSet
Colour: d7d7d7
EndChar

StartChar: _.sing.yeh_domBoride
Encoding: 65664 -1 400
GlifName: _.mark.he_yeh
Width: 414
VWidth: 1304
GlyphClass: 1
UnlinkRmOvrlpSave: 1
Flags: HMW
LayerCount: 2
Fore
SplineSet
335 301 m 0
 328 301 320 302 313 302 c 0
 255 302 207 282 207 260 c 0
 207 217 342 230 342 146 c 0
 342 59 263 -2 161 -2 c 0
 135 -2 107 2 78 11 c 0
 69 14 64 23 64 34 c 0
 64 54 77 79 96 79 c 0
 98 79 100 78 103 77 c 0
 121 72 140 70 158 70 c 0
 219 70 275 97 275 133 c 0
 275 183 138 158 138 259 c 0
 138 336 230 377 309 377 c 0
 318 377 327 376 336 375 c 0
 345 374 350 355 350 336 c 0
 350 318 346 301 335 301 c 0
EndSplineSet
EndChar

StartChar: uni0000
Encoding: 0 0 401
GlifName: uni0000
Width: 497
VWidth: 0
GlyphClass: 2
Flags: HMW
LayerCount: 2
Fore
SplineSet
59 -251 m 1
 59 709 l 1
 438 709 l 1
 438 -251 l 1
 59 -251 l 1
105 -181 m 1
 387 -181 l 1
 387 648 l 1
 105 648 l 1
 105 -181 l 1
EndSplineSet
EndChar

StartChar: _.ghaf.medi
Encoding: 65665 -1 402
GlifName: _.ghaf.medi
Width: 626
VWidth: 0
GlyphClass: 2
Flags: HMW
LayerCount: 2
Fore
SplineSet
626 -0 m 1
 463 0 415 52 344 137 c 1
 331 104 303 68 271 49 c 0
 219 15 148 0 82 -0 c 2
 -1 -0 l 1
 -26 1 -50 24 -50 50 c 0
 -50 75 -26 100 -1 100 c 2
 82 100 l 2
 171 100 242 126 284 158 c 1
 284 162 284 164 284 168 c 0
 284 234 226 316 61 488 c 1
 46 502 l 1
 116 623 l 1
 508 748 l 1
 482 640 l 1
 153 533 l 1
 215 470 259 420 290 378 c 0
 352 301 366 265 404 219 c 0
 451 161 478 100 626 100 c 1
 626 -0 l 1
117 714 m 1
 136 779 l 1
 431 878 l 1
 410 812 l 1
 117 714 l 1
EndSplineSet
Colour: ffda6b
EndChar

StartChar: _.ghaf.init
Encoding: 65666 -1 403
GlifName: _.ghaf.init
Width: 608
VWidth: 0
GlyphClass: 2
Flags: HMW
LayerCount: 2
Fore
SplineSet
-50 50 m 0
 -50 75 -26 100 -1 100 c 2
 82 100 l 2
 171 100 242 125 284 157 c 1
 284 160 284 164 284 168 c 0
 284 234 228 315 66 484 c 1
 46 502 l 1
 116 623 l 1
 508 748 l 1
 482 640 l 1
 152 533 l 1
 314 369 356 293 356 215 c 0
 356 196 354 176 350 156 c 0
 343 119 309 72 271 49 c 0
 219 15 147 0 82 -0 c 2
 -1 -0 l 1
 -26 1 -50 24 -50 50 c 0
117 714 m 1
 136 779 l 1
 431 878 l 1
 410 812 l 1
 117 714 l 1
EndSplineSet
Colour: ffda6b
EndChar

StartChar: _.la.isol.fa
Encoding: 65667 -1 404
Width: 731
VWidth: 0
Flags: HMW
LayerCount: 2
Fore
SplineSet
100 548 m 1
 170 620 l 1
 345 416 387 352 453 100 c 1
 484 118 512 143 539 175 c 1
 539 757 l 1
 631 800 l 1
 631 146 l 1
 589 -7 363 -77 221 -78 c 1
 192 28 l 1
 258 34 318 43 373 61 c 1
 313 279 276 344 100 548 c 1
EndSplineSet
Colour: ffda6b
EndChar

StartChar: _.la.fina.fa
Encoding: 65668 -1 405
Width: 788
VWidth: 0
Flags: HMW
LayerCount: 2
Fore
SplineSet
100 548 m 1
 170 620 l 1
 345 416 387 352 453 100 c 1
 484 118 512 143 539 175 c 1
 539 757 l 1
 631 800 l 1
 631 218 l 1
 638 153 714 100 788 100 c 1
 788 -0 l 1
 709 0 638 26 592 72 c 1
 511 -29 338 -77 221 -78 c 1
 192 28 l 1
 258 34 318 43 373 61 c 1
 313 279 276 344 100 548 c 1
EndSplineSet
Colour: ffda6b
EndChar

StartChar: _.sing.alef_maad
Encoding: 65671 -1 408
Width: 439
VWidth: 1352
Flags: HMW
LayerCount: 2
Fore
SplineSet
64 -3 m 0
 64 90 117 101 173 101 c 0
 190 101 209 100 225 100 c 0
 299 100 332 121 344 160 c 1
 375 140 l 1
 375 16 300 0 225 -0 c 0
 203 0 180 3 160 3 c 0
 129 3 104 -5 92 -40 c 1
 65 -22 l 1
 65 -15 64 -9 64 -3 c 0
EndSplineSet
Colour: ffda6b
EndChar

StartChar: _.sing.star
Encoding: 65672 -1 409
Width: 572
VWidth: 1197
Flags: HMW
LayerCount: 2
Fore
SplineSet
64 157 m 0
 64 164 67 169 72 172 c 2
 197 245 l 1
 78 314 l 2
 69 319 65 328 65 338 c 0
 65 363 87 394 110 394 c 0
 114 394 118 393 122 391 c 2
 240 324 l 1
 240 459 l 2
 240 479 263 490 286 490 c 0
 308 490 330 480 330 460 c 2
 330 321 l 1
 451 391 l 2
 455 393 458 394 462 394 c 0
 485 394 508 363 508 338 c 0
 508 328 504 319 495 314 c 2
 376 245 l 1
 500 172 l 2
 505 169 508 163 508 156 c 0
 508 132 482 94 462 94 c 0
 459 94 456 95 454 96 c 2
 330 167 l 1
 330 22 l 2
 330 8 309 1 287 1 c 0
 264 1 240 8 240 24 c 2
 240 166 l 1
 118 96 l 2
 116 95 114 94 111 94 c 0
 91 94 64 133 64 157 c 0
EndSplineSet
Colour: ffda6b
EndChar

StartChar: _.sing.zarb
Encoding: 65673 -1 410
Width: 443
VWidth: 1279
Flags: HMW
LayerCount: 2
Fore
SplineSet
64 354 m 0
 64 382 90 406 118 406 c 0
 129 406 140 403 150 393 c 2
 222 321 l 1
 293 393 l 2
 303 403 314 406 325 406 c 0
 352 406 379 381 379 354 c 0
 379 343 375 331 365 321 c 2
 293 250 l 1
 356 187 l 2
 371 172 377 157 377 143 c 0
 377 116 355 94 328 94 c 0
 314 94 299 100 285 114 c 2
 222 177 l 1
 159 114 l 2
 144 100 129 94 115 94 c 0
 88 94 66 116 66 143 c 0
 66 157 72 172 86 187 c 2
 149 250 l 1
 78 321 l 2
 68 331 64 343 64 354 c 0
EndSplineSet
Colour: ffda6b
EndChar

StartChar: _.sing.khateh_amoodi
Encoding: 65674 -1 411
Width: 229
VWidth: 1331
Flags: HMW
LayerCount: 2
Fore
SplineSet
64 1 m 1
 64 753 l 2
 64 784 90 801 115 801 c 0
 140 801 164 785 165 753 c 2
 165 1 l 1
 64 1 l 1
EndSplineSet
Colour: ffda6b
EndChar

StartChar: _.num.0.ar
Encoding: 65675 -1 412
Width: 430
VWidth: 1424
Flags: HW
LayerCount: 2
Fore
SplineSet
90 241 m 1
 198 377 l 1
 340 271 l 1
 228 130 l 1
 90 241 l 1
EndSplineSet
EndChar

